<svg version="1.1" viewBox="0 0 1977.1 1020.5" xml:space="preserve" xmlns="http://www.w3.org/2000/svg">


    <g transform="matrix(6.9174 0 0 6.9174 -.0018302 .0027248)" fill="#a290b2" stroke-width=".14456">
        <path transform="scale(.26458)" d="m850.62 155.08c5e-3 -0.653-0.564-1.592-1.142-1.911-1.322-0.73-2.777-1.281-4.239-1.684-2.494-0.687-4.18 0.612-4.239 3.25-0.031 1.418 0.207 2.841 0.311 4.262 0.268 3.747 0.717 4.191 4.401 4.472 1.074-0.256 2.184-0.419 3.209-0.809 0.49-0.187 1.107-0.762 1.172-1.23 0.294-2.104 0.511-4.231 0.527-6.35m-23.87-16.06c-1.858-0.734-3.591-1.521-5.388-2.099-1.707-0.547-3.145 0.128-3.509 1.962-0.55 2.775-0.775 5.627-0.94 8.457-0.038 0.636 0.662 1.818 1.16 1.897 2.355 0.374 4.55 1.883 7.061 1.205l1.616-11.422m-26.463-13.21c-2.14-0.395-4.227-0.777-6.313-1.165-2.276-0.424-3.277 0.214-3.487 2.544-0.175 1.929-0.122 3.884-0.08 5.825 0.115 5.315 1.141 6.155 6.435 5.382 0.1-0.015 0.202-0.021 0.304-0.038 1.368-0.231 2.055-0.855 2.168-2.425 0.194-2.708 0.76-5.389 1.115-8.088 0.076-0.581-0.077-1.193-0.142-2.035m-33.26-5.45c-1.274 0.085-2.445-0.049-3.467 0.279-1.788 0.573-3.485 1.43-5.493 2.285-0.332 3.238-1.173 6.739-0.703 10.529 3.427-0.612 6.827 0.847 9.804-1.882-0.373-3.536 1.085-7.3-0.141-11.211m-29.912 7.329c0.137-1.898-1.188-2.688-3.058-2.224-2.317 0.575-4.61 1.245-6.9 1.87-0.717 3.004-1.136 5.837-0.303 9.133 1.742 0.407 3.496 0.902 5.284 1.207 1.483 0.254 3.126 0.023 3.546-1.617 0.702-2.737 1.23-5.556 1.431-8.369m-44.813-30.994-3.141-1.227c-1.649 3.559-1.115 7.248-1.373 10.824-0.255 3.568-0.464 7.14-0.697 10.782l3.777 0.802c0.497-7.345 0.968-14.281 1.434-21.181m-17.378-2.23-4.485-2.094-0.792 20.723h3.323c1.671-6.184 1.498-12.422 1.954-18.629m-16.695-7.339-4.708-0.74c-0.265 3.344-0.537 6.363-0.727 9.386-0.097 1.516 0.056 3.049-0.078 4.559-0.133 1.499-0.431 2.989-0.75 4.463-0.296 1.353 0.318 1.922 1.545 2.027 0.675 0.057 1.359 0.01 2.144 0.01 2.286-6.441 1.455-13.024 2.574-19.705m-1.246 44.178h-3.749v25.399h3.749zm-23.005-49.793-1.953-0.72c-0.916 0.868-1.799 1.528-2.441 2.37-0.521 0.686-1.034 1.579-1.071 2.402-0.13 2.925 0.024 5.863-0.081 8.791-0.102 2.744-0.35 5.485-0.617 8.219-0.267 2.743 0.43 3.564 3.68 3.937 0.195-0.523 0.546-1.069 0.585-1.638 0.146-2.111 0.103-4.236 0.287-6.342 0.489-5.634 1.061-11.261 1.611-17.019m-2.779 46.131c-1.185-1.747-2.787-2.35-5.255-1.124 2.183 9.257-1.388 18.432-0.865 28.079l3.083 0.338c1.033-9.288 2.029-18.244 3.037-27.293m-23.144-56.622-3.944 0.325c-0.17 0.545-0.351 0.918-0.398 1.308-0.352 2.899-0.638 5.806-1.019 8.702-0.597 4.531-1.259 9.052-1.876 13.581-0.096 0.707-0.061 1.432-0.157 2.14-0.214 1.589 0.738 2.255 2.055 2.506 0.764 0.146 1.578 0.026 2.383 0.026 1.006-9.738 1.96-18.98 2.956-28.588m-3.823 50.915c-1.301-0.109-2.581-0.463-4.016-0.736-0.57 9.967-1.136 19.85-1.702 29.79l4.75 1.13c0.808-5.082 1.783-9.966 2.311-14.898 0.452-4.234 0.38-8.523 0.567-12.786 0.06-1.395-0.249-2.361-1.91-2.5m-47.56 3.497c-3.004-0.914-4.319 1.833-6.32 2.693 0 2.99 0.03 5.728-7e-3 8.467-0.041 3.051-0.158 6.1-0.214 9.151-0.031 1.668-7e-3 3.338-7e-3 5.197l5.025 0.266c0.527-8.897 1.024-17.315 1.523-25.774m-4.974-22.097c0.671-6e-3 1.341-0.215 1.951-0.32 0.24-8.359 0.473-16.516 0.71-24.837-5.296-0.398-6.66 1.037-6.475 5.944 0.188 5.05 0.135 10.112 0.055 15.168-0.059 3.794 0.097 4.079 3.759 4.045m-21.075-19.507-5.186 1.674v26.348l4.097-0.676 1.089-27.346m-2.671 49.001c-1.179 0.157-2.361 0.288-3.822 0.463-0.33 8.743-0.661 17.529-1.01 26.74l5.339-0.307c0.16-0.769 0.265-1.059 0.274-1.351 0.157-4.454-0.055-8.959 0.563-13.347 0.484-3.426 0.46-6.844 0.792-10.254 0.168-1.722-0.37-2.179-2.136-1.944m-18.778 4.314-5.928 1.493c0.701 9.077-0.042 17.848-0.753 26.848l4.79-1.132c0.035-8.997 1.942-17.832 1.891-27.209m-8.8-18.045h5.31c0.895-9.22 1.129-18.33 2.998-27.621l-5.862 1.994-2.446 25.627m-15.432-18.079c-3.415-1.015-4.513-0.178-4.689 3.169-0.276 5.179-0.835 10.344-1.288 15.513-0.183 2.09-0.448 4.173-0.566 6.266-0.031 0.549 0.351 1.122 0.611 1.884l4.058-0.52c0.636-8.944 1.253-17.604 1.874-26.312m-0.915 43.639c-0.687 0.036-0.996 0.024-1.294 0.072-2.999 0.489-2.916 0.488-2.808 3.475 0.054 1.497-0.246 3.009-0.408 4.511-0.11 1.004-0.325 2-0.378 3.005-0.212 4.156-0.4 8.314-0.567 12.472-0.045 1.065-8e-3 2.133-8e-3 3.174 4.369 0.179 4.189 0.145 4.329-3.745 0.185-5.078 0.8-10.139 1.108-15.215 0.151-2.504 0.026-5.024 0.026-7.749m-62.552-2.951c-3.127 1.737-5.146-1.89-7.574-0.872l-0.985 24.201 6.98-0.797c0.521-7.452 1.034-14.755 1.579-22.532m-5.284-21.522c0.58-0.067 1.14-0.315 1.837-0.517 0-2.906 0.137-5.717-0.037-8.509-0.175-2.81 1.828-5.495 0.467-8.309-2.324-1.019-3.631 0.545-4.843 1.621-0.065 2.709-0.132 5.216-0.185 7.724-0.01 0.509 0.06 1.019 0.046 1.527-0.028 1.078 0.048 2.181-0.159 3.226-0.476 2.403 0.438 3.517 2.874 3.237m-24.211 20.389c-2.815 1.239-5.623-0.082-8.379 2.327v22.998c1.81 0.577 3.749 0.62 5.989-0.394 0.271-4.109 0.449-8.25 0.842-12.371 0.387-4.067 0.991-8.114 1.548-12.56m-1.552 33.087-3.534 0.309c0 1.397 0.087 2.514-0.021 3.612-0.14 1.385-0.443 2.752-0.668 4.128-0.147 0.901-0.35 1.802-0.404 2.71-0.217 3.591-0.385 7.186-0.571 10.766 3.084 0.322 3.122 0.329 3.614-2.296 0.318-1.694 0.539-3.408 0.744-5.121 0.24-1.994 0.508-3.993 0.593-5.997 0.111-2.669 1.292-5.328 0.247-8.111m-11.06-30.425-6.285-0.507c-0.033 9.025-1.484 17.789-1.545 26.572 0.739 0.261 1.111 0.463 1.504 0.52 3.323 0.485 4.783-0.762 4.871-4.068 0.045-1.709 0.11-3.423 0.28-5.123 0.353-3.522 0.865-7.029 1.142-10.557 0.172-2.192 0.033-4.409 0.033-6.837m-1.826 34.544-3.215-0.228-1.309 20.214h3.709c0.354-4.887 0.563-9.4 1.063-13.882 0.225-2.009 0.543-3.936-0.248-6.104m-109.91 29.492c-1.493-0.796-3-0.603-4.549 0.078-1.131 6.533-2.392 12.942-2.737 19.879h3.296c0.418-1.217 0.889-2.248 1.109-3.33 0.238-1.16 0.148-2.387 0.363-3.555 0.795-4.316 1.654-8.62 2.518-13.072m-18.107-0.809-6.721 0.704c-0.251 7.426-1.97 14.872-1.351 22.656h4.25c0.366-7.886 3.085-15.41 3.822-23.36m656.46 34.34c-0.28 7.154-0.347 14.316-0.519 21.474-0.014 0.591-0.185 1.179-0.262 1.655-2.382 0.325-4.565 0.6-6.742 0.928-4.027 0.608-5.438-0.752-4.975-4.99-1.506 0-3.007-0.063-4.5 0.011-3.628 0.181-3.744 0.135-5.46-3.433-1.874 0-3.882-0.126-5.869 0.033-2.197 0.177-3.338-1.205-4.202-2.418-2.568 0-4.803-0.012-7.038 3e-3 -1.072 8e-3 -1.892 0.339-2.523 1.37-1.949 3.168-4.945 3.991-8.47 3.549-5.864-0.737-11.745-1.35-17.594-2.192-1.572-0.226-3.021-1.204-4.579-1.642-3.53-0.993-7.08-1.912-10.649-2.757-2.7-0.637-5.15-1.729-7.594-3.055-2.934-1.588-6.134-2.687-9.228-3.975-2.138-0.892-4.288-1.753-6.437-2.617-2.737-1.1-5.52-2.098-8.206-3.309-2.677-1.206-5.199-2.768-7.9-3.909-4.302-1.817-8.713-3.372-13.046-5.123-2.35-0.948-4.59-2.171-6.95-3.09-2.645-1.032-5.337-1.974-8.066-2.75-3.827-1.088-7.756-1.831-11.557-3.003a677.84 677.84 0 0 1-21.747-7.104c-2.183-0.754-4.162-2.088-6.238-3.149-2.084-1.064-4.106-2.29-6.278-3.126-1.705-0.656-2.402-1.581-2.417-3.388-0.029-3.468-0.235-6.934-0.39-10.4-0.021-0.436-0.177-0.867-0.491-1.356-0.709 1.668 0.019 4.198-2.843 4.362-1.277 0.073-1.313 0.082-3.134-3.817-0.9 1.137-1.817 2.038-2.428 3.113-1.56 2.749-3.651 4.382-6.938 4.835-2.238 0.308-4.354 1.509-6.736 2.387-0.218 0.554-0.533 1.298-0.808 2.056-0.727 2.007-1.597 2.624-3.637 2.1-1.417-0.363-2.589-0.435-4.054 0.128-3.195 1.228-4.909-0.054-5.331-3.558-0.036-0.302-0.095-0.601-0.183-1.154-3.987-1.336-7.687-3.681-12.348-3.361-3.719 0.255-4.153-0.488-5.178-4.123-0.373-1.318-1.319-2.473-1.874-3.471l-8.888-1.777c-0.563 0.731-0.591 1.896-0.236 3.28 1.465 5.709 2.702 11.478 4.277 17.156 0.784 2.831 1.201 5.568 0.353 8.399-0.253 0.843-0.586 1.718-1.103 2.415-1.146 1.546-2.495 2.942-3.645 4.486-1.681 2.253-3.262 4.581-4.882 6.881-0.349 0.494-0.577 1.149-1.039 1.48-3.267 2.334-5.824 5.341-8.338 8.422-1.822 2.234-4.572 3.003-7.134 4.002-4.454 1.736-8.93 3.415-13.394 5.124-6.18 2.363-12.296 4.909-18.549 7.052-7.035 2.41-14.137 4.667-21.313 6.611-7.936 2.148-15.959 4.011-23.999 5.732-8.042 1.722-16.146 3.163-24.238 4.638a644.94 644.94 0 0 1-18.687 3.145c-3.508 0.533-7.066 0.72-10.59 1.159-2.728 0.338-5.429 0.875-8.151 1.239-6.269 0.839-12.552 1.56-18.813 2.452-5.316 0.759-10.602 1.744-15.916 2.528-3.224 0.477-6.48 0.725-9.715 1.136-3.318 0.423-6.624 0.953-9.942 1.374-4.145 0.525-8.304 0.931-12.442 1.491-6.243 0.846-12.468 1.831-18.713 2.656-3.637 0.48-7.303 0.735-10.949 1.154-1.904 0.219-3.789 0.629-5.695 0.854-3.933 0.466-7.873 0.871-11.811 1.292-5.741 0.614-11.484 1.209-17.227 1.831-4.758 0.515-9.51 1.079-14.271 1.583-2.636 0.279-5.29 0.402-7.918 0.733-6.076 0.767-12.147 0.87-18.272 0.636-5.072-0.193-10.172 0.416-15.258 0.39-7.953-0.04-15.941 0.087-23.851-0.591-11.062-0.95-22.118-2.383-32.173-7.701a52.522 52.522 0 0 1-9.069-6.057c-4.68-3.886-7.987-8.772-11.14-13.838a31.49 31.49 0 0 0-2.699-3.701c-1.307-1.541-1.902-3.219-1.893-5.265 0.035-6.606-0.196-13.216-0.062-19.819 0.138-6.677-0.216-13.421 1.95-20.17-1.442-0.485-2.756-0.959-4.09-1.37-2.286-0.703-3.172-1.986-2.736-4.293a7.77 7.77 0 0 1 0.962-2.561 942.02 942.02 0 0 1 8.212-13.191c0.979-1.547 1.883-3.209 3.158-4.481 1.602-1.597 2.572-3.375 2.962-5.551 0.126-0.699 0.703-1.584 0.451-2.04-1.981-3.582-0.084-7.085 0.448-10.435 0.824-5.177 2.658-10.197 4.176-15.25 0.139-0.461 1.16-1.021 1.65-0.923 0.664 0.133 1.541 0.746 1.744 1.347 0.645 1.923 0.976 3.948 1.504 5.911 1.137 4.214 2.322 8.416 3.537 12.8 1.422-0.137 2.799-0.361 4.182-0.387 6.611-0.122 13.234-6e-3 19.837-0.33 6.056-0.297 12.099-0.963 18.129-1.633 3.012-0.336 5.981-1.048 8.973-1.58 0.501-0.09 1.011-0.205 1.515-0.187 4.336 0.153 8.418-1.363 12.649-1.88 1.646-0.201 2.034-1.088 2.248-2.662 0.709-5.227 1.681-10.417 2.528-15.625 0.146-0.893 0.223-1.802 0.261-2.706 0.248-5.734 5.763-8.306 9.899-6.821 1.257 0.451 1.883 1.108 2.047 2.628 0.3 2.771 0.037 5.455-0.24 8.194-0.488 4.841-0.739 9.707-1.111 14.871l3.328 1.021c0.094-1.814 0.049-3.212 0.258-4.572 0.416-2.699 0.934-5.383 1.48-8.059 0.295-1.44 1.256-2.373 2.729-2.483 1.823-0.134 3.661-0.035 5.488-0.129 1.68-0.087 2.276 0.937 2.182 2.287-0.176 2.531-0.576 5.046-0.881 7.568-0.119 0.997-0.234 1.994-0.381 3.251 6.735 0.557 12.814-1.455 19.15-3.186 0.039-0.697 0.072-1.372 0.115-2.047 0.148-2.313 0.281-4.627 0.453-6.937 0.198-2.637 0.422-5.272 0.658-7.906 0.16-1.778-0.436-2.855-2.326-3.315-1.105-0.269-2.074-1.106-3.201-1.741 0.836-2.282 1.722-4.091 3.408-5.584 1.508-1.334 2.702-3.031 3.991-4.603 1.798-2.193 3.685-4.328 5.296-6.653 2.021-2.915 4.088-5.858 5.604-9.041 1.842-3.866 4.598-6.95 7.43-9.985 1.759-1.885 2.825-3.669 2.714-6.443-0.135-3.414 0.547-6.855 0.76-10.292 0.258-4.12 0.104-8.289 0.678-12.359 0.439-3.117-0.369-6.546 1.82-9.339 0.118-0.152 0.155-0.377 0.202-0.575 0.249-1.051 0.153-2.589 0.81-3.046 1.092-0.758 2.666-1.122 4.035-1.116 3.232 0.013 6.481 0.193 9.689 0.588 3.081 0.38 3.641 1.495 3.168 4.684-0.204 1.377-0.042 2.804-0.122 4.204-0.104 1.818-0.136 3.659-0.458 5.444-0.701 3.895-0.502 7.802-0.307 11.821 2.389-3.332 4.836-6.624 7.15-10.008 2.11-3.084 4.125-6.237 6.09-9.416 1.179-1.905 2.244-3.886 3.235-5.895 0.441-0.893 0.872-1.962 0.798-2.91-0.357-4.506 1.602-8.566 2.344-12.852 0.203-1.167 0.678-2.846 2.392-2.753 1.47 0.08 2.741 0.838 3.163 2.467 0.481 1.864 1.054 3.711 1.417 5.599 0.496 2.581 1.11 3.148 3.754 3.435 3.104 0.338 6.218 0.51 9.023 2.299 0.982 0.627 2.521 0.354 3.798 0.557 2.896 0.461 5.788 0.961 9.12 1.519 0.424-4.668 1.857-8.509 1.516-12.659-0.128-1.545 0.362-3.213 0.895-4.709 0.257-0.718 1.415-1.746 1.909-1.621 1.077 0.273 2.107 1.078 2.925 1.897 0.427 0.429 0.343 1.353 0.52 2.046 0.473 1.852 0.962 3.701 1.36 5.227l10.41 3.014c1.464-2.108 2.971-4.02 4.164-6.11 0.614-1.075 1.264-1.544 2.395-1.389 1.179 0.161 2.293 0.621 2.428 1.946 0.248 2.431 0.352 4.878 0.467 7.32 0.146 3.006 0.229 6.015 0.38 9.02 0.014 0.246 0.331 0.477 0.66 0.92 3.673-1.348 7.372-2.695 11.063-4.068 1.229-0.458 2.439-0.975 3.651-1.483 2.508-1.052 5.196-1.573 7.549-3.109 3.352-2.186 7.424-2.559 11.103-3.945 0.854-0.321 1.684-0.702 2.69-1.125 0.245-3.466 0.693-6.893 0.674-10.317-0.023-4.053 1.432-7.794 1.997-11.712 0.13-0.897 0.354-1.782 0.565-2.665 0.369-1.549 1.263-1.919 2.688-1.117 1.962 1.106 3.478 2.441 3.303 5.033-0.078 1.158 0.312 2.348 0.496 3.578h4.085c0.295-0.592 0.77-1.179 0.883-1.829 0.544-3.173 2.744-5.409 4.484-7.873 0.467-0.663 1.776-1.14 2.586-1.006 0.538 0.089 1.058 1.369 1.251 2.195 0.278 1.181 0.249 2.434 0.353 3.655 0.413 4.866 0.821 9.732 1.248 14.597 0.035 0.392 0.198 0.773 0.376 1.445 1.118-0.145 2.231-0.155 3.264-0.45 2.542-0.726 5.073-1.505 7.554-2.413 1.999-0.732 4.012-1.517 5.851-2.573 4.632-2.662 9.624-4.139 14.819-5.206 2.663-0.548 5.179-1.791 7.83-2.429 4.167-1.003 7.751-3.549 12.055-4.242 1.848-0.297 3.696-1.238 5.299-2.269 2.697-1.735 5.646-2.781 8.66-3.659 1.021-0.298 1.635-0.687 1.911-1.673 0.871-3.111 1.754-6.22 2.604-9.236-1.768-0.721-3.099-1.333-4.481-1.79-0.491-0.163-1.107 0.073-1.667 0.084-0.901 0.019-1.871 0.218-2.69-0.041-1.902-0.601-2.363-2.707-0.973-4.154 0.56-0.581 1.3-0.982 1.937-1.494 1.017-0.818 2.013-1.662 3.021-2.491 0.704-0.58 1.363-1.24 2.134-1.718 3.169-1.968 6.378-3.87 9.561-5.817 1.295-0.792 2.47-1.853 3.853-2.403 1.745-0.693 3.634-1.062 5.488-1.429 1.182-0.232 2.088 0.324 2.904 1.294 1.571 1.867 3.042 4.016 5.037 5.289 4.15 2.645 5.642 7.319 8.838 10.665 1.056 1.104 2.581 2.885 1.359 4.649-1.143 1.653-3.192 0.869-4.848 0.71-1.278-0.123-2.519-0.648-4.164-1.1 0 3.992 0.055 7.726-0.018 11.458-0.055 2.736-0.31 5.469-0.415 8.205-0.086 2.237-0.17 4.479-0.1 6.714 0.061 1.872 0.682 2.658 2.273 3.457 0.23-1.392 0.386-2.799 0.711-4.167 0.554-2.338 1.285-2.808 3.594-2.919 2.146-0.102 4.002 0.372 5.604 1.889 0.563 0.534 1.376 0.812 2.091 1.176 2.604 1.325 3.439 2.959 3.063 5.944-0.14 1.111-0.21 2.23-0.332 3.566l2.202 1.165c0.245-0.267 0.449-0.386 0.478-0.537 0.125-0.704 0.155-1.426 0.302-2.126 0.468-2.245 1.455-3.043 3.736-3.171 2.814-0.157 5.387 0.03 7.605 2.295 1.453 1.484 1.805 3.123 1.95 4.929 0.129 1.617 0.027 3.253 0.027 5.222l3.64 1.812c0.2-1.471 0.381-2.57 0.492-3.676 0.17-1.676 0.993-2.565 2.743-2.642 1.961-0.087 3.86-0.116 5.609 1.03 0.75 0.491 1.647 0.764 2.492 1.098 1.927 0.764 2.372 1.454 2.34 3.445-0.038 2.236-9e-3 4.473-9e-3 7.12l7.809 3.15c0.11-1.764 0.194-3.108 0.271-4.319-0.332-0.309-0.465-0.471-0.632-0.58-3.242-2.132-3.544-3.056-1.107-5.964 3.258-3.889 6.623-7.717 10.24-11.268 2.129-2.092 4.466-2.022 6.503 0.805 3.09 4.287 6.017 8.69 8.988 13.061 1.631 2.397 1.024 3.705-1.862 4.192-1.096 0.186-2.181 0.444-3.204 0.656 0 2.947-0.244 5.806 0.052 8.608 0.551 5.18 0.359 10.255-0.337 15.435-0.769 5.714-0.72 11.54-0.977 17.32-0.085 1.924-0.014 3.854-0.014 6.254 2.168-0.569 4.004-0.991 5.8-1.541 1.532-0.469 3.009-1.124 4.534-1.623a48.562 48.562 0 0 1 4.101-1.159c4.837-1.13 9.677-2.243 14.526-3.314 1.591-0.351 3.203-0.648 4.823-0.812 5.853-0.594 11.704-1.184 17.567-1.65 3.551-0.282 7.165-0.758 10.672-0.391 5.674 0.594 11.409-0.433 17.036 0.972 6.885 1.719 13.959 2.825 20.67 5.045 4.607 1.524 9.437 2.907 13.375 6.265 2.28 1.943 5.263 3.051 7.879 4.619 2.086 1.249 4.293 2.401 6.095 3.994 3.093 2.732 6.663 4.687 10.125 6.81 4.145 2.544 7.617 5.688 10.293 9.763 1.604 2.443 3.175 4.832 5.638 6.714 2.018 1.543 3.442 4.022 4.715 6.316 0.61 1.101 0.354 2.735 0.326 4.125-0.105 4.984-0.503 9.975-0.368 14.951 0.155 5.823-0.017 11.597-0.865 17.358-0.145 0.986-0.026 2.007-0.082 3.01-0.109 1.907-0.257 3.813-0.39 5.72-0.099 1.395-0.238 2.789-0.294 4.186-0.09 2.22-0.04 4.447-0.206 6.66-0.205 2.721-0.663 5.424-0.833 8.147-0.105 1.696 0.224 3.417 0.175 5.12-0.081 2.817-0.31 5.628-0.484 8.6 1.975 0.978 3.983 0.554 5.972 0.286 0.601-0.08 1.171-0.415 1.77-0.475 4.048-0.409 8.1-0.791 12.154-1.151 6.158-0.546 12.32-1.066 18.53-1.602 2.024 1.316 2.71 3.187 2.613 5.67m-766.87 49.53c1.036 1.256 0.983 2.573-0.191 3.864-0.338 0.369-0.27 1.132-0.33 1.72-0.229 2.21-0.317 4.442-0.671 6.632-0.767 4.734-2.601 9.148-4.218 13.632-1.195 3.319-1.961 6.793-3.147 10.116-0.903 2.537-2.127 4.964-3.276 7.407a1798.8 1798.8 0 0 1-7.078 14.839c-1.496 3.106-3.162 6.135-4.521 9.298-1.229 2.861-2.004 5.915-3.228 8.778-3.162 7.396-6.057 14.909-9.955 21.981-1.459 2.647-2.447 5.551-3.695 8.317-1.589 3.523-3.239 7.02-4.831 10.541-1.124 2.487-2.088 5.054-3.315 7.489-2.106 4.181-4.353 8.293-6.561 12.422-1.145 2.137-2.35 4.241-3.493 6.377-2.001 3.734-3.807 7.566-6.424 10.957-1.411 1.83-2.375 3.996-3.653 5.935-3.24 4.914-6.555 9.779-9.82 14.677-1.803 2.7-3.563 5.431-5.354 8.14-1.73 2.622-3.333 5.343-5.242 7.826-3.434 4.466-5.879 9.48-8.47 14.424-3.957 7.548-7.994 15.061-12.985 21.982-1.632 2.262-3.742 4.214-5.808 6.118-2.675 2.468-5.366 4.972-8.34 7.042-0.141 0.099-10.505-15.374-14.517-15.374v-134.57c2.539-1.478 3.157-4.368 4.793-6.509 0.862-1.128 1.703-2.3 2.723-3.271 2.019-1.924 4.57-1.381 5.708 1.207 1.712 3.899 3.309 7.847 4.981 11.762 0.596 1.396 1.168 2.816 1.935 4.119 0.973 1.658 1.337 3.389 1.181 5.273-0.123 1.488-0.877 2.17-2.408 2.108-1.709-0.068-3.425-0.016-5.427-0.016-0.211 6.776 0.084 13.477 0.702 20.669 2.164-1.977 3.333-4.038 4.454-6.142 3.151-5.917 6.013-12.047 11.715-16.109 0.165-0.119 0.409-0.206 0.481-0.368 1.978-4.396 6.151-3.634 9.771-4.161 0.294-0.043 0.608 0.079 0.915 0.077 0.3 0 0.6-0.06 1.27-0.136 1.41-5.021 1.606-10.248 1.604-15.633-1.845-1.034-3.763-1.734-5.94-1.982-3.119-0.354-4.912-2.355-5.111-5.522-0.275-4.35-0.4-8.707-0.606-13.061a24.623 24.623 0 0 0-0.263-2.727c-0.24-1.504 0.139-2.739 1.082-3.979 1.037-1.363 2.218-0.894 3.553-0.908 3.533-0.036 7.064-0.386 10.729-0.62 0.17-0.938 0.418-1.723 0.436-2.513 0.163-7.019 0.26-14.038 0.438-21.057 0.043-1.718 0.474-3.435 0.436-5.146-0.05-2.287-0.145-4.396-2.016-6.441-1.283-1.402-1.393-4.153-1.471-6.321-0.119-3.24 0.235-6.501 0.418-9.75 0.16-2.853 2.377-4.978 5.193-4.818 2.648 0.15 5.296 0.435 7.927 0.789 2.034 0.274 2.33 0.808 2.394 3.038 0.123 4.26 0.293 8.519 0.447 12.914 2.857 1.658 5.76 2.841 9.354 2.021 0.255-2.284 0.502-4.49 0.747-6.696 0.271-2.425 0.45-4.865 0.833-7.273 0.455-2.857 2.168-4.362 4.98-4.278 2.619 0.079 5.245 0.329 7.844 0.682 2.406 0.328 2.855 0.911 3.109 3.396 0.104 1.015 0.096 2.042 0.1 3.063 0.01 3.838 4e-3 7.676 4e-3 11.612 1.205 0.128 2.047 0.063 2.773 0.323 2.598 0.925 4.539 0.531 6.896-1.343 3.276-2.605 7.28-4.292 10.964-6.391 0.619-0.354 1.197-0.78 1.773-1.204 1.946-1.438 3.832-2.968 5.84-4.313 1.849-1.237 3.809-2.315 5.754-3.404 2.681-1.499 5.382-2.859 8.658-2.319 1.064 0.175 2.271 0.012 3.313-0.317 1.688-0.534 3.076-0.177 4.137 1.106" fill="#a290b2" opacity=".5" stroke-width=".14456"/>
    </g><path d="m1977.1 803.25v217.22h-1977.1l0.067344-92.129c1.8469-2.1098 4.2542-4.102 5.9213-6.3432 3.5763-4.7937 6.5162-10.148 10.563-14.485 5.9489-6.364 12.216-12.382 16.214-20.309 2.096-4.1504 4.7522-7.9965 6.945-12.085 2.1167-3.9429 3.9982-7.9965 5.9213-12.036 2.4211-5.0774 4.4617-10.321 4.6761-16.007 0.15218-4.1089-0.43579-8.2524-0.18677-12.354 0.34587-5.6031 1.2451-11.206 5.7068-15.301 3.2996-3.0229 6.7583-5.8798 10.21-8.7366 5.5339-4.5793 11.891-8.4392 16.512-13.793 9.3661-10.86 18.905-21.741 24.799-35.175 1.3835-3.1405 3.9429-5.7552 5.949-8.6329 3.7907-5.4647 8.5499-10.376 9.3108-17.57 0.22827-2.1098 1.6809-4.1228 2.7393-6.0873 6.0804-11.331 12.209-22.641 18.31-33.964 0.17294-0.31819 0.16602-0.73324 0.30437-1.0791 2.8845-7.0765 5.4786-14.305 8.7643-21.195 3.7009-7.7231 6.3307-15.915 7.8166-24.349 2.0614-11.849 9.2209-19.694 18.303-26.3 3.7216-2.6978 8.1971-4.3856 11.926-7.0903 3.1128-2.262 5.776-5.2226 8.4184-8.0864 3.5279-3.8184 7.4708-7.4569 10.134-11.843 8.7366-14.409 16.138-29.426 16.809-46.789 0.0208-0.18677 0-0.38045 0.0692-0.55339 2.2412-6.1426 0.45654-11.76-2.1306-17.321-0.94076-2.0268-1.9922-4.1504-2.2205-6.3225-0.26286-2.4418-1.1967-4.1297-2.8707-5.8244-4.8076-4.8629-7.4569-10.826-7.2356-17.66 0.20752-6.9174 1.0376-13.814 1.5841-20.724 0.55339-7.0419 1.0653-14.084 1.5702-20.738-6.3432-5.5477-7.1249-8.7851-3.1336-15.53 4.1643-7.0211 6.364-15.232 12.555-21.05 0.53264-0.49805 0.89926-1.1967 1.2728-1.8469 2.179-3.8461 4.268-7.7475 6.5508-11.524 0.64331-1.0722 1.7501-1.9369 2.8084-2.677 3.6178-2.5041 7.0004-1.4872 8.3908 2.6286 1.7778 5.2849 3.1474 10.722 5.0704 15.938 2.3173 6.2948 4.7176 12.59 7.7129 18.552 1.259 2.5179 2.677 4.4271 0.92001 7.1041-1.8331 2.7946-4.3925 3.9844-7.6852 3.5832-1.3835-0.16602-2.767-0.41504-4.3579-0.65715v36.012c5.022 0.43579 8.4599 5.2019 13.178 4.2888 4.358-6.6822 7.7475-13.468 12.617-18.926 6.4124-7.1802 11.192-15.336 16.408-23.256 2.262-3.4379 5.1188-4.7661 9.0479-3.597 3.2166 0.94768 6.364 2.1513 9.6013 3.0229 8.4254 2.2689 16.788 4.8283 25.497 5.9697 8.1279 1.0653 16.214 2.5179 24.335 3.6385 7.5676 1.0376 15.163 1.8746 22.751 2.7808 1.1068 0.13835 2.262 0 3.3618 0.20753 9.1655 1.7293 18.262 3.9291 27.503 5.1604 6.5715 0.87158 13.226 3.0436 19.95 1.2935 5.5546-1.4388 11.068-3.1128 16.477-5.0082 3.6593-1.2728 7.4293-2.6563 10.597-4.8007 5.2572-3.5486 10.701-7.1733 14.928-11.801 6.0873-6.6891 13.503-11.248 21.492-14.616 10.978-4.6346 20.102-11.296 27.49-20.531 2.3242-2.9191 4.7315-5.7829 7.1041-8.6675 4.1228-5.022 8.2801-5.1327 12.244-2.5041 2.1167 1.4042 4.8076 2.6355 7.2632 2.677 6.9035 0.12451 13.849-0.0968 20.718-0.7955 4.2127-0.42888 8.2593-2.3865 12.472-2.9399 4.2196-0.55339 8.4392-0.27669 12.348-2.6839 1.6187-0.9961 3.9567-0.80241 5.9628-1.176 1.9369-0.36662 3.8737-0.76091 5.8106-1.1621 5.8452-1.2036 11.663-2.4488 17.501-3.597 7.1249-1.4042 14.305-2.5387 21.368-4.1504 5.4578-1.2451 10.701-3.7838 16.187-4.3994 5.271-0.58106 10.224-1.3835 15.204-3.3203 3.5763-1.3835 7.7198-1.6878 10.895 1.7639 1.8677 2.0337 4.268 1.8884 6.7444 1.5495 11.822-1.6394 23.644-3.2442 35.465-4.8283 11.109-1.4942 22.226-2.9537 33.342-4.4271 14.236-1.8815 28.479-3.77 42.722-5.6238 1.6602-0.20752 3.3895-0.0692 5.0428-0.3597 10.791-1.8884 21.582-3.8046 32.353-5.8106 4.2058-0.7955 8.3562-1.8538 12.534-2.7877 3.7561-0.83008 7.865 0.23519 11.344-2.179 0.35971-0.24903 1.086 0.0553 1.6463 0.0553 2.006 0 4.0121 0.10376 6.0181-0.0484 4.4755-0.32512 8.9372-0.94077 13.413-1.1552 9.0272-0.44271 17.958 0.10376 27.068-1.9092 7.3808-1.6325 15.011-2.8569 22.516-4.2888 8.6052-1.6532 17.432-2.8776 25.615-5.8383 8.4945-3.0782 17.1-3.521 25.774-3.8322 8.9234-0.32512 17.895 0.20752 26.839 0.47038 1.4457 0.0415 2.8845 0.56031 4.3026 0.94077 2.3035 0.60872 4.5516 1.6394 6.8828 1.8469 3.8944 0.34587 7.8304 0.0692 11.746 0.22828 5.188 0.21444 10.397 0.41504 15.564 0.94768 7.2633 0.76091 14.485 1.4526 21.804 0.78166 3.8046-0.34587 6.6891-1.0376 9.2831-4.773 5.8314-8.4323 12.659-16.166 23.402-18.698 0.7056-0.16601 1.3005-0.74707 1.9784-1.0514 5.0842-2.3173 10.12-4.7522 15.301-6.8482 2.0199-0.80933 4.3441-0.88542 6.5438-1.2244 2.2136-0.33895 4.4479-0.48422 6.6407-0.87851 9.2416-1.6602 18.144-1.4942 26.251 4.1712 1.1622 0.80933 2.7877 1.2175 4.2196 1.3212 3.3619 0.2421 6.7376 0.22135 10.099 0.23519 5.8037 0.0346 11.607-0.40121 17.266 1.5772 1.6878 0.58798 3.7699 0.50497 5.5754 0.17985 7.7613-1.4111 15.53-1.9714 23.381-1.0376 1.2797 0.14527 2.9053 0.2767 3.8391-0.36662 2.7255-1.8677 5.6446-1.591 8.6467-1.5702 5.3679 0.0277 10.424-0.86467 14.001-5.5339 0.6148-0.70794 1.3682-1.2824 2.2136-1.6878 7.7474-4.1228 15.834-6.5023 24.75-5.2434 1.9922 0.2767 4.4756 0.52572 6.0527-0.38737 3.9844-2.2966 7.6921-5.1189 11.275-8.0103 3.0852-2.4764 5.8591-2.2412 6.8897 1.3281 1.0792 3.7354 2.0199 7.6299 2.2136 11.497 0.2352 4.441-0.6641 8.9234-0.6364 13.385 0.048 7.45-1.003 14.872 0.1868 22.378 0.9546 6.032 0.6364 12.258 0.9477 18.4 0.1936 3.7008 0.6087 7.4016 0.7401 11.102 0.1038 2.8569 0.9408 5.1396 3.7561 6.2602 2.5456 1.0099 5.0774 2.5594 7.706 2.767 5.1189 0.40121 10.182-0.26286 15.481 0.42196 8.3493 1.0791 16.602 1.7293 24.46 5.0704 2.6978 1.1552 5.8314 2.677 8.5084 2.2827 5.0082-0.72632 9.0064 1.176 13.302 2.8569 5.3264 2.089 10.68 4.2473 16.2 5.7068 9.7189 2.5733 19.714 4.1919 29.33 7.0557 7.4916 2.2274 14.651 5.2572 22.654 5.5546 3.4726 0.13835 7.2633 0.89926 10.258 2.5594 4.5655 2.5594 9.4422 3.1128 14.34 4.0536 1.5772 0.30437 3.1336 1.0376 4.5655 1.8054 4.8698 2.6424 9.5321 5.7207 14.547 8.0242 6.1772 2.843 12.88 4.4064 18.794 7.9965 2.6425 1.6118 5.8106 2.3934 8.8058 3.3688 6.1911 2.006 12.43 3.8391 18.628 5.8106 6.0389 1.9369 11.995 4.1089 18.054 5.8798 8.0379 2.3519 16.18 4.3303 24.211 6.6545 8.4737 2.4418 17.038 4.0951 25.816 5.0497 11.123 1.1898 22.44 1.9576 32.74 6.9658 6.3294 3.0782 13.184 3.5555 19.915 4.6485 5.6515 0.92692 11.414 1.1829 17.051 2.1997 7.8996 1.425 15.543 1.5011 22.966-2.0475 1.3282-0.62257 2.8569-0.85776 4.3027-1.2451 6.1287-1.6463 12.244-3.3688 18.4-4.8698 2.6839-0.65715 5.4785-0.94076 8.2316-1.2105 4.0813-0.39429 8.3355-0.0277 12.23-1.0376 10.666-2.7669 21.202-6.0389 31.737-9.2693 1.1967-0.38045 2.6839-1.674 2.9883-2.8223 1.3973-5.3126 2.594-10.701 3.5278-16.117 0.4151-2.4764 0.069-5.0912 0.069-8.038-3.4033-0.41504-6.5438-0.73324-9.6567-1.2036-3.1266-0.4773-3.846-1.7847-2.6839-4.6346 0.3459-0.86467 0.8647-1.6602 1.3143-2.4764 3.3618-6.0458 6.7237-12.085 10.099-18.124 5.5546-9.9541 11.199-19.853 16.636-29.862 2.4902-4.5793 4.5447-9.4007 6.862-14.07 0.8992-1.8193 1.6878-3.8253 3.0575-5.2365 3.3756-3.4933 6.779-2.6286 8.6052 1.8469 1.4042 3.4587 2.7462 6.945 4.3994 10.279 4.773 9.6982 9.6636 19.341 14.658 28.928 3.3619 6.4332 7.3878 12.527 10.445 19.092 2.338 4.9667 4.8906 10.03 5.2364 15.523-5.0497 4.8214-11.324 2.4211-17.224 3.68 0 4.2611 0.042 8.3285-0.01 12.403-0.048 4.6623 0.2767 9.3938-0.4012 13.973-0.7263 4.8975-1.4872 9.5806 0.6918 14.298 0.6087 1.3281 1.0376 2.933 0.9477 4.3649-0.6019 8.9372 0.9546 17.895-1.0722 26.86-1.9161 8.5291-3.272 17.183-2.5664 26.099 0.4496 5.6861-0.7955 11.504-0.4289 17.21 0.3252 5.0843 1.1691 10.258 2.9745 14.983 2.262-0.12451 3.9222-0.31819 5.5823-0.27669 9.4768 0.22827 18.968 0.51189 28.451 0.76091 1.6878 0.0484 3.4033-0.13835 5.0497 0.0899 3.2027 0.46346 4.4202 2.0337 4.351 5.354-0.1384 6.3294-0.2905 12.659-0.505 18.988-0.069 2.2274 0.4842 5.271-0.7263 6.4678-1.3696 1.3627-4.3718 1.1344-6.6822 1.4803-2.7669 0.41505-3.929 2.0752-2.7808 4.6554 1.2867 2.8845 2.6909 5.7552 4.3787 8.4115 4.7246 7.4223 9.5944 14.734 9.3039 24.086 0 0.56031 0.1176 1.1137 0.3459 1.6187 3.8184 8.8819 7.782 17.708 11.441 26.646 3.9637 9.6705 8.4392 19.265 7.1802 30.208-0.083 0.72632 0.1522 1.4872 0.2214 2.2343 0.6571 6.6476 1.2659 13.309 1.9853 19.943 0.2352 2.2136 0.7332 4.3856 1.1483 6.5715 0.3458 1.84 1.2243 3.7215 1.0237 5.4924-0.6225 5.693 2.2343 9.6982 5.9905 13.226 3.3895 3.1958 7.2356 5.9144 10.584 9.1448 5.0911 4.9113 9.8641 10.155 14.893 15.135 11.386 11.255 22.758 22.516 36.538 30.976 2.1998 1.3489 3.9844 3.3895 6.0181 5.0358 0.8301 0.6779 1.8193 1.176 2.7393 1.7363" fill="#452265" stroke-width=".26458"/><g transform="matrix(6.9174 0 0 6.9174 -.0018302 .0027248)" fill="#d5bd7c" stroke-width=".098231">
        <path transform="matrix(.01374 0 0 -.01374 39.73 137.16)" d="m12996 3310.5v-2007.7c0-67.14 0-67.16 69.4-67.18 93-0.02 186-0.12 279 0.11 16.2 0.04 32.4 1.56 49.8 2.46v2072.3zm-861.3-447.78c0-522.58 0.6-1045.2-0.9-1567.8-0.1-45.08 9.1-62.38 58-60.5 101.3 3.9 202.8 1.02 304.3 1.31 17.7 0.05 35.4 1.99 57.6 3.33v1686.7c21.2 0.96 37.6 2.32 54.1 2.36 84.5 0.22 169.1 1.57 253.6-0.6 34.9-0.89 48 8.87 46.9 45.34-2.4 76.03-0.8 152.19-0.8 228.29v108.98h-1125.1v-380.92h352.3zm-1236.7-0.37c0-524.3 0.5-1048.6-0.8-1572.9-0.1-41.34 9.8-56.08 53.1-54.78 99.7 2.99 199.5 0.93 299.3 0.98 66.9 0.04 67 0.09 67 64.78v1627.8h55.7c84.6 0 169.2 1.37 253.7-0.68 34.5-0.84 47.9 8.78 46.7 45.29-2.4 76.02-0.7 152.19-0.6 228.3v109.03h-1126v-382.77h351.9zm-690.3-1091.2h-247.42c39.06 145 77.52 287.63 115.92 430.27 3.7 0.84 7.3 1.67 11 2.5 39.6-142.18 79.2-284.37 120.5-432.77zm556.2-486.29c-159.5 518.61-319 1037.2-478.7 1555.8-55.2 179.35-110.3 358.73-166.5 537.78-6.3 19.9-3.7 56.13-38.5 46.01-16.1-4.69-26.1-31.11-38.3-48.11-2.8-3.9-3.1-9.59-4.6-14.44-205.2-669.07-410.43-1338.1-615.62-2007.2-12.08-39.39-23.83-78.87-37.4-123.8 138.25 0 269.95-0.74 401.61 1.35 11.05 0.18 27.35 17.54 31.66 30.17 14.17 41.5 21.03 85.65 36.91 126.35 5.91 15.12 28.78 33.14 44.29 33.49 121.75 2.75 243.55 0.75 365.35 2.12 29.4 0.33 42.1-10.62 48.3-38.51 9.1-41.21 20.4-82.15 34.2-121.98 4.5-12.95 19.9-31.33 30.6-31.51 131.6-2.16 263.2-1.41 402-1.41-6.4 22.44-10.5 38.28-15.3 53.9zm4300.4 1640.2c0.3 106.57-1.6 213.19 1.1 319.69 0.9 38.07-11.4 53.24-48.3 60.85-219.3 45.1-439.5 58.38-660.1 16.67-342.1-64.66-603.3-239.78-748.9-565.22-85.7-191.54-107.7-394.14-89.3-600.77 29.9-333.7 166.2-609.91 461.5-785.62 94.4-56.17 203.6-88.57 308.2-125.88 35.2-12.55 48.5-25.12 45.7-62.33-4.4-58.94-1.9-118.4-6.3-177.34-1.2-15.359-18.1-29.191-26.4-44.468-8.7-16.133-20.6-32.723-22.1-49.911-1.2-13.25 9.7-38.242 18.5-39.832 36.4-6.55 29-31.48 28.6-54.148-3.6-202.91-7.5-405.81-11.1-608.72-0.4-24.351-8.7-51.933 26.3-63.492 2.6-0.84 0.8-39.988-7.7-44.43-30-15.601-24.5-38.941-10.9-54.23 16.5-18.54 41.2-37.988 64.3-40.84 55.1-6.781 111.4-4.8 167.2-4.54 12.7 0.06 26.7 5.22 37.9 11.892 38.2 22.968 39.7 51.828 9 84.437-7.1 7.621-10 32.852-7.5 33.981 51.1 23.429 32.6 70.031 40.4 108.61 3.1 14.91 25 36.68 37.4 36.09 13.6-0.649 29.4-21.61 38.2-37.129 5.8-10.18 0.8-26.41 0.9-39.93 0-37.07 18.4-56.801 55.6-57.531 72.7-1.43 145.4-2.141 218.1-3.598 52-1.043 59.5 31.789 60.1 73.809 0.5 43.39-15.1 67.82-61.5 67.152-32.1-0.472-64.2 0.988-96.4 1.27-39.9 0.359-51.6 23.078-51 59.519 0.6 36.961 15 58.239 53.8 57.778 32.1-0.387 64.2-0.778 96.3-2.707 46.7-2.813 62.4 21 63.2 64.628 0.9 41.989-4.1 75.442-56.8 75.739-28.7 0.172-57.5 1.902-86.2 1.422-42.4-0.7-66.7 12.781-64.8 61.718 1.8 46.11 25 58.09 65.3 55.672 28.7-1.711 57.5-0.5 86.2-1.871 47.5-2.269 60.6 24.238 62.3 66.461 1.6 41.309-6.7 71.211-54.9 72.59-74.3 2.129-148.7 3.891-223.1 5.508-35 0.761-53.3-17.379-55.7-51.797-1-13.492 3.4-29.453-2.4-39.992-8.7-15.719-24.3-27.641-36.9-41.18-13.6 14.281-36.6 27.172-38.9 43.121-5.4 36.301-3.4 74.438 1.1 111.15 2 15.628 14.6 33.449 27.7 43.429 24.6 18.813 32.6 81.742 5.5 90.141-35.2 10.879-32.3 32.558-31.6 58.06 1.5 48.98 4.4 98.01 3.4 146.95-0.8 35.57 10 47.42 48.4 51 107.5 10.05 214.2 27.77 321.4 41.74 34.4 4.5 47.2 19.99 46.3 56.88-2.7 109.88-0.8 219.88-1.1 329.84-0.1 12.53-2.8 25.06-4.7 40.57-16-3.27-27.2-6.31-38.5-7.72-125.4-15.6-250.6-40.79-376.3-43.85-156.2-3.81-306.4 35.13-435.2 129.52-216.5 158.66-274 382.36-240.3 634.38 35.5 264.86 204.5 445.36 463 510.97 167.4 42.47 335.2 36.7 503.1 4.06 40.7-7.92 81.1-18 125.9-28.03 1.3 20.37 3 35.09 3 49.81zm-13241 1496.8h165.97v-63.42c0-231.62 1.23-463.25-1.03-694.85-0.44-45.46 13.25-60.78 57.45-56.08 30.09 3.21 61.1 3.35 91.15-0.02 44.41-4.97 53.34 14.74 53.07 55.13-1.59 233.29-0.79 466.61-0.79 699.92v60.08h168.27v176.94h-534.09zm1720.1-7.49v186.21h-419.55v-59.51c0-270.38 0-540.76 0.01-811.15 0.01-122.37 0.03-122.37 120.88-122.37h298.52v196.53h-214.85v320.38c55.93 0 108.09-1.48 160.06 1.07 12.48 0.62 34.18 13.89 34.8 22.54 3.42 47.96 1.64 96.3 1.64 150.9h-197.16v115.4zm-524.51 137.11c-0.01 16.14-1.52 32.27-2.27 47.28h-200.58v-234.52h-174.1v234.68h-198.57v-454.31c0-162.37-0.62-324.76 0.97-487.12 0.16-16.24 12.81-45.74 21.28-46.34 58.14-4.11 116.71-2.17 180.39-2.17v560.68h172.12v-51.89c0-121.78-0.48-243.57 0.26-365.35 0.28-45.28-13.78-109.49 9.75-130.83 26.89-24.4 88.58-8.79 134.77-14 44.56-5.02 57.48 10.5 57.16 55.89-2.06 295.99-1.03 592-1.18 888zm4922.6-1299.4c138.79-304.45 278.19-608.63 415.64-913.68 13.34-29.61 20.64-64.58 20.79-97.11 1.51-322.98 1.52-645.97 0.15-968.94-0.16-37.86 10.66-49.95 48.72-49.17 108.17 2.22 216.42 0.62 324.64 1 14.35 0.05 28.7 2.84 45.08 4.58v60.81c0 319.6-0.5 639.21 0.85 958.8 0.12 29.13 7.3 60.35 19.27 86.96 111.6 248.15 224.99 495.48 337.79 743.09 33.28 73.04 66.34 146.17 101.95 224.66-147.77 0-287.88 0.99-427.93-1.52-14.05-0.25-34.2-18.96-40.55-33.8-54.51-127.4-106.47-255.89-159.25-384.03-13.17-31.98-26.55-63.87-44.07-105.98-9.98 23.03-15.26 34.68-20.12 46.5-59.76 145.37-118.77 291.06-180.09 435.77-7.23 17.06-26.73 40.82-41.01 41.14-138.21 3.11-276.52 1.87-423.69 1.87 10.1-23.64 15.66-37.43 21.83-50.95zm-1356.2-604.75c-104.91 0.24-209.83-0.76-314.7 1.16-13.98 0.26-39.36 14.18-39.71 22.6-3.13 75.28-1.83 150.75-1.83 232.37h455.6v396.16h-869.47v-2071.7h869.96v399.27h-452.76v664.47h409.32v353c-20.35 1-38.38 2.6-56.41 2.64zm-5035.2 260.46c0.26 109.95-1.32 219.93 0.98 329.83 0.76 36.23-11.53 49.59-46.52 56.71-214.12 43.55-429.1 58.07-645 18.35-375.07-69.01-652.59-264.57-785.68-631.86-96.387-266-95.121-537.58-9.566-806.96 77.304-243.41 229.15-429.07 456.62-545.55 319.84-163.77 656.68-166.41 998.76-87.13 13.06 3.03 28.82 30.18 29.19 46.41 2.56 111.58 1.51 223.25 1.14 334.88-0.04 12.5-3.07 24.99-5.14 40.74-19.01-4.54-33.54-7.87-47.99-11.49-155.64-39.01-313.04-55.2-472.62-31.8-235.51 34.53-422.06 140.36-521.32 367.95-49.203 112.83-60.313 232.39-48.223 353.18 23.375 233.48 136.18 407.15 353.35 505.86 147.26 66.94 303.43 79.95 461.87 64.91 91.83-8.72 182.75-27.09 277.06-41.58 1 11.56 3.05 24.56 3.08 37.55zm5693.1-12.34c97.69-9.12 176.12-50.38 242.1-116.18 114.56-114.23 162.48-257.78 178.43-414.74 18.37-180.84-3.8-354.7-97.47-513.57-71.24-120.83-174.31-199.35-323.06-221.35zm-421.45 347.97c0-230.07-0.01-460.14-0.01-690.21 0-424.61 0.72-849.23-1.04-1273.8-0.19-45.34 12.48-58.74 56.99-56.34 67.47 3.64 135.34-0.84 202.93 1.37 286.76 9.36 547.05 88.8 754.71 297.41 187.46 188.32 268.81 422.52 279.21 683.15 11.9 298.55-57.77 572.09-271.97 792.41-280.79 288.82-639.27 323.33-1020.8 302.01zm-1206.8-2017.2c8.89 0.19 24.65 27.83 24.67 42.73 1.25 663.22 0.8 1326.5 1.83 1989.7 0.05 36.75-12.4 46.15-46.82 45.04-148.14-4.78-292.99-26.6-432.35-78.62-153.58-57.32-285.52-145.52-386.78-279.81-229.15 272.93-533.47 350.73-875.15 359.58v-2004.5c0-10.15 1.19-20.47-0.19-30.42-4.88-35.16 8.61-47.74 44.9-46.61 77.75 2.41 155.63 0.74 233.45 0.74h142v1586.6c111.57-29.7 184.1-94.71 211.34-194.93 23.64-87 37.41-179.24 38.48-269.37 4.24-356.94 2.33-713.97 1.01-1071-0.15-39.05 9.23-53.52 50.61-52.31 98.04 2.86 196.34 3.78 294.3-0.28 48.86-2.02 58.38 15.01 58.18 60.21-1.6 367.13-1.29 734.28-0.28 1101.4 0.27 98.74 11.81 196.18 60.65 284.81 40.17 72.89 100.3 119.83 187.89 141.67v-1586.6c136.05 0 264.2-0.89 392.26 1.92zm-2880.8 602.37c206.82 65.41 291.72 182.68 268.48 370.75-18.97 153.54-136.04 258.53-296.67 266.05-172.56 8.07-287.5-65.61-318.92-204.47-46.15-203.87 26.73-323.88 259.25-420.59-12.48-40.92-24.98-82.51-37.84-123.99-47.05-151.7-95.49-302.98-140.41-455.31-10.9-36.95-25.77-42.7-61.31-33.87-422.39 104.89-735.09 480.27-766.59 914.17-18.54 255.22 19.29 496.72 156.06 715.79 169.25 271.1 418.6 423.37 732.62 465.42 325.61 43.61 623-27.28 874.2-248.09 210.16-184.75 315.96-424.09 338.79-699.04 26.75-322.35-50.77-615.04-274.31-858.22-132.77-144.43-296.9-238.39-486.73-287.77-22.42-5.83-40.18-12.66-51.06 19.4-64.58 190.41-131.14 380.15-196.83 570.19-0.94 2.73 0.75 6.37 1.27 9.58m-2176.9-925.17h80.801l-46.586-665.46h-8.554c-99.813 0-165.42 42.782-198.68 109.33-33.278-66.55-98.871-109.33-198.69-109.33h-7.605l-46.578 665.46h80.801l37.082-572.3c66.543 13.312 96.011 70.351 96.011 154.96v417.34h78.907v-417.34c0-84.61 29.468-141.65 95.062-154.01l38.031 571.35m364.13 0h80.805v-665.46h-80.805v409.73h-134.99v-409.73h-80.809v665.46h80.809v-179.68h134.99v179.68m247.18-512.4h142.6l-71.29 291.84zm180.63-153.06-19.96 82.711h-178.73l-19.96-82.711h-82.7l186.32 698.72h11.41l186.33-698.72h-82.71m157.83 0v589.4h-111.23v76.058h303.26v-76.058h-111.22v-589.4h-80.81m649.33 665.46h80.8v-665.46h-80.8v409.73h-134.99v-409.73h-80.81v665.46h80.81v-179.68h134.99v179.68m247.19-512.4h142.6l-71.3 291.84zm180.63-153.06-19.97 82.711h-178.72l-19.96-82.711h-82.71l186.32 698.72h11.41l186.33-698.72h-82.7m211.06 244.31c68.44 6.66 123.58 75.109 123.58 171.12 0 96.02-55.14 165.42-123.58 172.08zm0-77.949v-166.36h-80.81v665.46h48.48c136.9 0 240.52-101.72 240.52-250.03 0-134.99-90.31-235.76-208.19-249.07m362.23 77.949c68.44 6.66 123.58 75.109 123.58 171.12 0 96.02-55.14 165.42-123.58 172.08zm0-77.949v-166.36h-80.81v665.46h48.48c136.9 0 240.52-101.72 240.52-250.03 0-134.99-90.31-235.76-208.19-249.07m281.41-166.36v665.46h228.16v-78.918h-147.35v-130.24h133.08v-72.238h-133.08v-305.16h147.35v-78.903h-228.16m522.88 665.46h80.8v-665.46h-80.8v423.99l-134.99 102.67v-526.66h-80.81v674.96h8.56l207.24-154.95v145.45m142.62-656.91v83.672c25.67-14.269 53.24-22.832 86.51-22.832 55.14 0 87.46 34.231 87.46 98.871 0 44.68-11.4 77.949-47.53 139.74l-53.24 91.274c-28.51 48.488-47.53 94.117-47.53 144.51 0 76.039 53.23 131.18 136.9 131.18 26.61 0 52.28-4.75 72.24-13.308v-77.949c-19.96 8.546-38.98 15.207-62.74 15.207-39.92 0-63.69-22.821-63.69-60.84 0-34.227 15.21-63.688 37.07-101.73l50.38-88.402c36.13-59.899 61.8-117.89 61.8-185.38 0-106.48-60.84-172.07-163.51-172.07-37.08 0-67.5 6.66-94.12 18.058m523.85-8.551v665.46h77.96v-665.46h-77.96m400.24 665.46h80.8v-665.46h-80.8v423.99l-134.99 102.67v-526.66h-80.81v674.96h8.56l207.24-154.95v145.45m432.58-665.46v589.4h-111.22v76.058h303.25v-76.058h-111.22v-589.4h-80.81m459.2 665.46h80.8v-665.46h-80.8v409.73h-135v-409.73h-80.81v665.46h80.81v-179.68h135v179.68m176.84-665.46v665.46h228.16v-78.918h-147.35v-130.24h133.08v-72.238h-133.08v-305.16h147.35v-78.903h-228.16m538.13 153.06h142.59l-71.3 291.84zm180.61-153.06-19.96 82.711h-178.71l-19.98-82.711h-82.7l186.32 698.72h11.42l186.32-698.72h-82.71m157.83 0v589.4h-111.23v76.058h303.26v-76.058h-111.23v-589.4h-80.8m327.99 0v589.4h-111.22v76.058h303.26v-76.058h-111.23v-589.4h-80.81m252.9 0v665.46h77.96v-665.46h-77.96m160.68 332.72c0 202.5 132.14 342.24 345.08 342.24 47.54 0 92.22-5.699 131.19-16.16v-81.758c-38.02 10.469-81.75 17.11-124.53 17.11-162.57 0-267.14-103.62-267.14-261.43 0-157.8 104.57-261.43 267.14-261.43 42.78 0 86.51 6.661 124.53 17.118v-81.758c-38.97-10.449-83.65-16.16-131.19-16.16-212.94 0-345.08 139.75-345.08 342.23m512.44-424.94 30.42 176.83h72.26l-53.25-176.83h-49.43m321.35 100.77v83.672c25.67-14.269 53.24-22.832 86.51-22.832 55.13 0 87.46 34.231 87.46 98.871 0 44.68-11.42 77.949-47.54 139.74l-53.23 91.274c-28.52 48.488-47.53 94.117-47.53 144.51 0 76.039 53.23 131.18 136.88 131.18 26.62 0 52.29-4.75 72.26-13.308v-77.949c-19.97 8.546-38.98 15.207-62.75 15.207-39.92 0-63.69-22.821-63.69-60.84 0-34.227 15.21-63.688 37.07-101.73l50.39-88.402c36.12-59.899 61.79-117.89 61.79-185.38 0-106.48-60.84-172.07-163.52-172.07-37.07 0-67.48 6.66-94.1 18.058m385.99-8.551v589.4h-111.23v76.058h303.26v-76.058h-111.23v-589.4h-80.8m275.72 153.06h142.59l-71.3 291.84zm180.61-153.06-19.96 82.711h-178.72l-19.97-82.711h-82.7l186.32 698.72h11.42l186.32-698.72h-82.71m300.42 665.46h87.46l-140.7-294.7v-370.76h-80.81v370.76l-140.69 294.7h87.46l94.12-203.45 93.16 203.45m83.69-656.91v83.672c25.67-14.269 53.24-22.832 86.51-22.832 55.14 0 87.46 34.231 87.46 98.871 0 44.68-11.42 77.949-47.54 139.74l-53.23 91.274c-28.52 48.488-47.53 94.117-47.53 144.51 0 76.039 53.24 131.18 136.88 131.18 26.62 0 52.29-4.75 72.25-13.308v-77.949c-19.96 8.546-38.97 15.207-62.74 15.207-39.92 0-63.69-22.821-63.69-60.84 0-34.227 15.21-63.688 37.07-101.73l50.39-88.402c36.17-59.899 61.77-117.89 61.77-185.38 0-106.48-60.82-172.07-163.49-172.07-37.08 0-67.49 6.66-94.11 18.058m523.9-8.551v665.46h77.9v-665.46h-77.9m400.2 665.46h80.8v-665.46h-80.8v423.99l-135 102.67v-526.66h-80.8v674.96h8.6l207.2-154.95v145.45m432.6-665.46v589.4h-111.3v76.058h303.3v-76.058h-111.2v-589.4h-80.8m459.2 665.46h80.8v-665.46h-80.8v409.73h-135v-409.73h-80.8v665.46h80.8v-179.68h135v179.68m176.8-665.46v665.46h228.2v-78.918h-147.4v-130.24h133.1v-72.238h-133.1v-305.16h147.4v-78.903h-228.2m538.1 153.06h142.6l-71.3 291.84zm180.6-153.06-19.9 82.711h-178.7l-20-82.711h-82.7l186.3 698.72h11.4l186.4-698.72h-82.8m157.9 0v589.4h-111.3v76.058h303.3v-76.058h-111.2v-589.4h-80.8m328 0v589.4h-111.3v76.058h303.3v-76.058h-111.2v-589.4h-80.8m252.9 0v665.46h77.9v-665.46h-77.9m160.6 332.72c0 202.5 132.2 342.24 345.1 342.24 47.6 0 92.2-5.699 131.2-16.16v-81.758c-38 10.469-81.7 17.11-124.5 17.11-162.6 0-267.2-103.62-267.2-261.43 0-157.8 104.6-261.43 267.2-261.43 42.8 0 86.5 6.661 124.5 17.118v-81.758c-39-10.449-83.6-16.16-131.2-16.16-212.9 0-345.1 139.75-345.1 342.23"/>
        <path transform="matrix(.01374 0 0 -.01374 39.73 137.16)" d="m13943 237.9v84.614h77v-84.614zm8.5 173.97-8.5 491.49h77l-8.6-491.49h-59.9"/>
    </g>
</svg>
