<?xml version="1.0" encoding="UTF-8" standalone="no"?>
<!-- Created with Inkscape (http://www.inkscape.org/) -->

<svg
   width="205mm"
   height="205mm"
   viewBox="0 0 205 205"
   version="1.1"
   id="svg1"
   inkscape:version="1.4.2 (ebf0e940d0, 2025-05-08)"
   sodipodi:docname="favicon.svg"
   inkscape:export-filename="favicon.png"
   inkscape:export-xdpi="7.9297562"
   inkscape:export-ydpi="7.9297562"
   xmlns:inkscape="http://www.inkscape.org/namespaces/inkscape"
   xmlns:sodipodi="http://sodipodi.sourceforge.net/DTD/sodipodi-0.dtd"
   xmlns="http://www.w3.org/2000/svg"
   xmlns:svg="http://www.w3.org/2000/svg">
  <sodipodi:namedview
     id="namedview1"
     pagecolor="#ffffff"
     bordercolor="#666666"
     borderopacity="1.0"
     inkscape:showpageshadow="2"
     inkscape:pageopacity="0.0"
     inkscape:pagecheckerboard="0"
     inkscape:deskcolor="#d1d1d1"
     inkscape:document-units="mm"
     inkscape:zoom="0.51809792"
     inkscape:cx="461.30276"
     inkscape:cy="411.1192"
     inkscape:window-width="1560"
     inkscape:window-height="1143"
     inkscape:window-x="26"
     inkscape:window-y="23"
     inkscape:window-maximized="0"
     inkscape:current-layer="layer1"
     inkscape:export-bgcolor="#452266ff" />
  <defs
     id="defs1" />
  <g
     inkscape:label="Layer 1"
     inkscape:groupmode="layer"
     id="layer1"
     transform="translate(37.246457,-16.45005)">
    <path
       id="path2"
       d="m 62.879826,48.826292 c 0.0141,-6.21171 -0.0952,-12.42589 0.06,-18.63337 0.0564,-2.21932 -0.6597,-3.10373 -2.81517,-3.54682 -12.77761,-2.6289 -25.61167,-3.4029 -38.47395,-0.97155 -19.9354715,3.76837 -35.161356,13.97564 -43.649186,32.9445 -4.99886,11.16401 -6.27945,22.97289 -5.20348,35.01708 1.74273,19.449698 9.68376,35.549418 26.89577454,45.790558 5.50334006,3.27378 11.87098046,5.1622 17.96345146,7.33707 2.05317,0.73202 2.82928,1.46438 2.66347,3.63291 -0.25753,3.43535 -0.10583,6.90139 -0.36689,10.33674 -0.067,0.89535 -1.05127,1.70145 -1.53458,2.59186 -0.51153,0.94015 -1.20297,1.90747 -1.29117,2.909 -0.067,0.77259 0.56445,2.22921 1.0795,2.32164 2.1202,0.38205 1.69334,1.83479 1.66864,3.1563 -0.21166,11.82582 -0.43744,23.65438 -0.64911,35.4796 -0.0247,1.42173 -0.508,3.02673 1.53458,3.70057 0.14817,0.0495 0.0459,2.33193 -0.45155,2.58935 -1.74625,0.91017 -1.42875,2.27196 -0.635,3.16094 0.96308,1.083 2.39889,2.21547 3.7465,2.38125 3.2138,0.39508 6.49464,0.27864 9.74372,0.26458 0.74436,-0.003 1.56281,-0.30344 2.21192,-0.69494 2.22955,-1.33698 2.31775,-3.01985 0.52917,-4.92125 -0.41981,-0.44098 -0.58562,-1.91203 -0.4445,-1.97916 2.9845,-1.36521 1.90147,-4.0816 2.36008,-6.33236 0.17992,-0.86773 1.45344,-2.13431 2.17664,-2.10245 0.79728,0.0387 1.7145,1.25938 2.22955,2.16598 0.33867,0.59271 0.0494,1.53819 0.0494,2.32478 0,2.16252 1.07597,3.31265 3.24203,3.35495 4.23686,0.0846 8.47372,0.12347 12.71058,0.2081 3.03742,0.0635 3.47134,-1.85208 3.50309,-4.30032 0.0353,-2.52939 -0.87489,-3.95454 -3.5807,-3.91224 -1.86972,0.0247 -3.74297,-0.0601 -5.61622,-0.0777 -2.33186,-0.0175 -3.00919,-1.34401 -2.97392,-3.4677 0.0353,-2.15554 0.87137,-3.39383 3.13267,-3.36903 1.86972,0.0247 3.7465,0.0458 5.6127,0.15875 2.72344,0.16578 3.63361,-1.2241 3.68652,-3.7677 0.0494,-2.44478 -0.24341,-4.39568 -3.30905,-4.41332 -1.6757,-0.0106 -3.35139,-0.10925 -5.02709,-0.0846 -2.47297,0.0423 -3.88761,-0.74444 -3.77825,-3.59488 0.10231,-2.6881 1.45698,-3.38624 3.80648,-3.24549 1.67216,0.0998 3.35491,0.0293 5.02708,0.10901 2.76578,0.13194 3.52778,-1.41287 3.62656,-3.8735 0.0953,-2.40771 -0.39159,-4.15113 -3.19617,-4.23121 -4.33564,-0.12418 -8.67128,-0.22684 -13.00692,-0.32103 -2.04258,-0.0444 -3.10444,1.01282 -3.24555,3.01942 -0.0564,0.78599 0.19755,1.71627 -0.14112,2.33081 -0.508,0.91616 -1.41463,1.61078 -2.15194,2.39994 -0.79022,-0.8322 -2.12725,-1.58362 -2.26483,-2.51319 -0.3175,-2.11596 -0.19756,-4.33881 0.067,-6.47876 0.10937,-0.91052 0.8502,-1.9498 1.60867,-2.53118 1.43581,-1.09679 1.905,-4.76427 0.32103,-5.25392 -2.04964,-0.63394 -1.88383,-1.89795 -1.83797,-3.3842 0.0882,-2.85468 0.254,-5.71253 0.19402,-8.56509 -0.0423,-2.07328 0.58562,-2.76366 2.82223,-2.97286 6.26533,-0.58561 12.48833,-1.61819 18.7325,-2.43275 2.01083,-0.26212 2.75519,-1.16488 2.70228,-3.31506 -0.16228,-6.40503 -0.0494,-12.81642 -0.067,-19.22533 -0.004,-0.7306 -0.16228,-1.4605 -0.27164,-2.36467 -0.93486,0.19015 -1.58397,0.3676 -2.24367,0.44979 -7.30955,0.90911 -14.605,2.37773 -21.93219,2.55623 -9.1052,0.22155 -17.86467,-2.04823 -25.37178,-7.54944 C 0.43820451,107.84321 -2.9096653,94.804192 -0.94468533,80.115232 1.1225845,64.677322 10.975675,54.156782 26.042816,50.332672 c 9.75783,-2.4758 19.5333,-2.1396 29.31936,-0.23707 2.37772,0.46214 4.72722,1.04916 7.33778,1.63407 0.0776,-1.1871 0.17992,-2.04506 0.17992,-2.90337 z"
       style="fill:#bfb266;fill-opacity:1;fill-rule:nonzero;stroke:none;stroke-width:0.0352778"
       sodipodi:nodetypes="sccsccccccccccccccccccccccscccccccccccccsccscccccccccccccccccccccss" />
    <path
       d="m 122.59071,180.83669 h -14.41979 c 2.27612,-8.4508 4.51556,-16.76471 6.75499,-25.07862 0.21484,-0.0487 0.42968,-0.0974 0.64417,-0.14605 2.30681,8.2878 4.61328,16.57526 7.02063,25.22467 z m 32.42099,28.34428 c -9.29781,-30.22776 -18.59704,-60.45553 -27.9019,-90.68118 -3.21804,-10.45386 -6.43185,-20.909141 -9.70598,-31.345721 -0.36371,-1.15958 -0.88865,-3.728508 -2.91677,-3.138308 -0.9398,0.2734 -1.73884,3.820228 -1.82562,4.102808 -11.96165,38.997471 -23.923993,77.994581 -35.883866,116.992401 -0.704144,2.29553 -1.389239,4.59705 -2.179461,7.21572 8.057798,0 15.734243,0.0434 23.408218,-0.0787 0.64382,-0.0102 1.59385,-1.022 1.84503,-1.75824 0.826199,-2.41935 1.225909,-4.99216 2.151599,-7.36459 0.34431,-0.88159 1.67746,-1.93146 2.58128,-1.95192 7.09471,-0.16052 14.19542,-0.0437 21.29261,-0.12347 1.71344,-0.019 2.45427,0.61912 2.81516,2.24437 0.53305,2.40171 1.18922,4.78825 1.99814,7.10988 0.26282,0.75459 1.15993,1.82598 1.78223,1.83621 7.66763,0.1263 15.33772,0.0822 23.42762,0.0822 -0.36865,-1.30775 -0.60819,-2.23062 -0.88829,-3.14149 z"
       style="fill:#bfb266;fill-opacity:1;fill-rule:nonzero;stroke:none;stroke-width:0.0352778"
       id="path1" />
  </g>
</svg>
