<svg viewBox="0 0 541.465 172.298" xmlns="http://www.w3.org/2000/svg">
    <path d="M12995.7 3310.52V1302.84c0-67.14 0-67.16 69.4-67.18 93-.02 186-.12 279 .11 16.2.04 32.4 1.56 49.8 2.46v2072.29h-398.2zm-861.3-447.78c0-522.58.6-1045.17-.9-1567.75-.1-45.08 9.1-62.38 58-60.5 101.3 3.9 202.8 1.02 304.3 1.31 17.7.05 35.4 1.99 57.6 3.33v1686.69c21.2.96 37.6 2.32 54.1 2.36 84.5.22 169.1 1.57 253.6-.6 34.9-.89 48 8.87 46.9 45.34-2.4 76.03-.8 152.19-.8 228.29v108.98h-1125.1v-380.92h352.3v-66.53zm-1236.7-.37c0-524.3.5-1048.59-.8-1572.89-.1-41.34 9.8-56.08 53.1-54.78 99.7 2.99 199.5.93 299.3.98 66.9.04 67 .09 67 64.78v1627.83h55.7c84.6 0 169.2 1.37 253.7-.68 34.5-.84 47.9 8.78 46.7 45.29-2.4 76.02-.7 152.19-.6 228.3v109.03h-1126v-382.77h351.9v-65.09zm-690.3-1091.25h-247.42c39.06 145 77.52 287.63 115.92 430.27 3.7.84 7.3 1.67 11 2.5 39.6-142.18 79.2-284.37 120.5-432.77zm556.2-486.29c-159.5 518.61-319 1037.21-478.7 1555.79-55.2 179.35-110.3 358.73-166.5 537.78-6.3 19.9-3.7 56.13-38.5 46.01-16.1-4.69-26.1-31.11-38.3-48.11-2.8-3.9-3.1-9.59-4.6-14.44-205.2-669.07-410.43-1338.13-615.62-2007.2-12.08-39.39-23.83-78.87-37.4-123.8 138.25 0 269.95-.74 401.61 1.35 11.05.18 27.35 17.54 31.66 30.17 14.17 41.5 21.03 85.65 36.91 126.35 5.91 15.12 28.78 33.14 44.29 33.49 121.75 2.75 243.55.75 365.35 2.12 29.4.33 42.1-10.62 48.3-38.51 9.1-41.21 20.4-82.15 34.2-121.98 4.5-12.95 19.9-31.33 30.6-31.51 131.6-2.16 263.2-1.41 402-1.41-6.4 22.44-10.5 38.28-15.3 53.9zM15064 2925.02c.3 106.57-1.6 213.19 1.1 319.69.9 38.07-11.4 53.24-48.3 60.85-219.3 45.1-439.5 58.38-660.1 16.67-342.1-64.66-603.3-239.78-748.9-565.22-85.7-191.54-107.7-394.14-89.3-600.77 29.9-333.7 166.2-609.91 461.5-785.62 94.4-56.17 203.6-88.57 308.2-125.88 35.2-12.55 48.5-25.12 45.7-62.33-4.4-58.94-1.9-118.4-6.3-177.34-1.2-15.359-18.1-29.191-26.4-44.468-8.7-16.133-20.6-32.723-22.1-49.911-1.2-13.25 9.7-38.242 18.5-39.832 36.4-6.55 29-31.48 28.6-54.148-3.6-202.91-7.5-405.813-11.1-608.719-.4-24.351-8.7-51.933 26.3-63.492 2.6-.84.8-39.988-7.7-44.43-30-15.601-24.5-38.941-10.9-54.23 16.5-18.54 41.2-37.988 64.3-40.84 55.1-6.781 111.4-4.8 167.2-4.54 12.7.06 26.7 5.22 37.9 11.892 38.2 22.968 39.7 51.828 9 84.437-7.1 7.621-10 32.852-7.5 33.981 51.1 23.429 32.6 70.031 40.4 108.609 3.1 14.91 25 36.68 37.4 36.09 13.6-.649 29.4-21.61 38.2-37.129 5.8-10.18.8-26.41.9-39.93 0-37.07 18.4-56.801 55.6-57.531 72.7-1.43 145.4-2.141 218.1-3.598 52-1.043 59.5 31.789 60.1 73.809.5 43.39-15.1 67.82-61.5 67.152-32.1-.472-64.2.988-96.4 1.27-39.9.359-51.6 23.078-51 59.519.6 36.961 15 58.239 53.8 57.778 32.1-.387 64.2-.778 96.3-2.707 46.7-2.813 62.4 21 63.2 64.628.9 41.989-4.1 75.442-56.8 75.739-28.7.172-57.5 1.902-86.2 1.422-42.4-.7-66.7 12.781-64.8 61.718 1.8 46.11 25 58.09 65.3 55.672 28.7-1.711 57.5-.5 86.2-1.871 47.5-2.269 60.6 24.238 62.3 66.461 1.6 41.309-6.7 71.211-54.9 72.59-74.3 2.129-148.7 3.891-223.1 5.508-35 .761-53.3-17.379-55.7-51.797-1-13.492 3.4-29.453-2.4-39.992-8.7-15.719-24.3-27.641-36.9-41.18-13.6 14.281-36.6 27.172-38.9 43.121-5.4 36.301-3.4 74.438 1.1 111.149 2 15.628 14.6 33.449 27.7 43.429 24.6 18.813 32.6 81.742 5.5 90.141-35.2 10.879-32.3 32.558-31.6 58.06 1.5 48.98 4.4 98.01 3.4 146.95-.8 35.57 10 47.42 48.4 51 107.5 10.05 214.2 27.77 321.4 41.74 34.4 4.5 47.2 19.99 46.3 56.88-2.7 109.88-.8 219.88-1.1 329.84-.1 12.53-2.8 25.06-4.7 40.57-16-3.27-27.2-6.31-38.5-7.72-125.4-15.6-250.6-40.79-376.3-43.85-156.2-3.81-306.4 35.13-435.2 129.52-216.5 158.66-274 382.36-240.3 634.38 35.5 264.86 204.5 445.36 463 510.97 167.4 42.47 335.2 36.7 503.1 4.06 40.7-7.92 81.1-18 125.9-28.03 1.3 20.37 3 35.09 3 49.81zM1822.54 4421.84h165.97v-63.42c0-231.62 1.23-463.25-1.03-694.85-.44-45.46 13.25-60.78 57.45-56.08 30.09 3.21 61.1 3.35 91.15-.02 44.41-4.97 53.34 14.74 53.07 55.13-1.59 233.29-.79 466.61-.79 699.92v60.08h168.27v176.94h-534.09v-177.7zm1720.14-7.49v186.21h-419.55v-59.51c0-270.38 0-540.76.01-811.15.01-122.37.03-122.37 120.88-122.37h298.52v196.53h-214.85v320.38c55.93 0 108.09-1.48 160.06 1.07 12.48.62 34.18 13.89 34.8 22.54 3.42 47.96 1.64 96.3 1.64 150.9h-197.16v115.4h215.65zm-524.51 137.11c-.01 16.14-1.52 32.27-2.27 47.28h-200.58v-234.52h-174.1v234.68h-198.57v-454.31c0-162.37-.62-324.76.97-487.12.16-16.24 12.81-45.74 21.28-46.34 58.14-4.11 116.71-2.17 180.39-2.17v560.68h172.12v-51.89c0-121.78-.48-243.57.26-365.35.28-45.28-13.78-109.49 9.75-130.83 26.89-24.4 88.58-8.79 134.77-14 44.56-5.02 57.48 10.5 57.16 55.89-2.06 295.99-1.03 592-1.18 888zm4922.56-1299.41c138.79-304.45 278.19-608.63 415.64-913.68 13.34-29.61 20.64-64.58 20.79-97.11 1.51-322.98 1.52-645.97.15-968.94-.16-37.86 10.66-49.95 48.72-49.17 108.17 2.22 216.42.62 324.64 1 14.35.05 28.7 2.84 45.08 4.58v60.81c0 319.6-.5 639.21.85 958.8.12 29.13 7.3 60.35 19.27 86.96 111.6 248.15 224.99 495.48 337.79 743.09 33.28 73.04 66.34 146.17 101.95 224.66-147.77 0-287.88.99-427.93-1.52-14.05-.25-34.2-18.96-40.55-33.8-54.51-127.4-106.47-255.89-159.25-384.03-13.17-31.98-26.55-63.87-44.07-105.98-9.98 23.03-15.26 34.68-20.12 46.5-59.76 145.37-118.77 291.06-180.09 435.77-7.23 17.06-26.73 40.82-41.01 41.14-138.21 3.11-276.52 1.87-423.69 1.87 10.1-23.64 15.66-37.43 21.83-50.95zM6584.52 2647.3c-104.91.24-209.83-.76-314.7 1.16-13.98.26-39.36 14.18-39.71 22.6-3.13 75.28-1.83 150.75-1.83 232.37h455.6v396.16h-869.47V1227.92h869.96v399.27h-452.76v664.47h409.32v353c-20.35 1-38.38 2.6-56.41 2.64zm-5035.25 260.46c.26 109.95-1.32 219.93.98 329.83.76 36.23-11.53 49.59-46.52 56.71-214.12 43.55-429.1 58.07-645.003 18.35-375.067-69.01-652.594-264.57-785.68-631.86-96.387-266-95.121-537.58-9.566-806.96 77.304-243.41 229.148-429.07 456.624-545.55 319.844-163.77 656.685-166.41 998.765-87.13 13.06 3.03 28.82 30.18 29.19 46.41 2.56 111.58 1.51 223.25 1.14 334.88-.04 12.5-3.07 24.99-5.14 40.74-19.01-4.54-33.54-7.87-47.99-11.49-155.64-39.01-313.04-55.2-472.62-31.8-235.509 34.53-422.059 140.36-521.317 367.95-49.203 112.83-60.313 232.39-48.223 353.18 23.375 233.48 136.176 407.15 353.352 505.86 147.265 66.94 303.428 79.95 461.868 64.91 91.83-8.72 182.75-27.09 277.06-41.58 1 11.56 3.05 24.56 3.08 37.55zm5693.09-12.34c97.69-9.12 176.12-50.38 242.1-116.18 114.56-114.23 162.48-257.78 178.43-414.74 18.37-180.84-3.8-354.7-97.47-513.57-71.24-120.83-174.31-199.35-323.06-221.35v1265.84zm-421.45 347.97c0-230.07-.01-460.14-.01-690.21 0-424.61.72-849.23-1.04-1273.84-.19-45.34 12.48-58.74 56.99-56.34 67.47 3.64 135.34-.84 202.93 1.37 286.76 9.36 547.05 88.8 754.71 297.41 187.46 188.32 268.81 422.52 279.21 683.15 11.9 298.55-57.77 572.09-271.97 792.41-280.79 288.82-639.27 323.33-1020.82 302.01v-55.96zM5614.12 1226.16c8.89.19 24.65 27.83 24.67 42.73 1.25 663.22.8 1326.46 1.83 1989.68.05 36.75-12.4 46.15-46.82 45.04-148.14-4.78-292.99-26.6-432.35-78.62-153.58-57.32-285.52-145.52-386.78-279.81-229.15 272.93-533.47 350.73-875.15 359.58V1300.24c0-10.15 1.19-20.47-.19-30.42-4.88-35.16 8.61-47.74 44.9-46.61 77.75 2.41 155.63.74 233.45.74h142v1586.64c111.57-29.7 184.1-94.71 211.34-194.93 23.64-87 37.41-179.24 38.48-269.37 4.24-356.94 2.33-713.97 1.01-1070.96-.15-39.05 9.23-53.52 50.61-52.31 98.04 2.86 196.34 3.78 294.3-.28 48.86-2.02 58.38 15.01 58.18 60.21-1.6 367.13-1.29 734.28-.28 1101.43.27 98.74 11.81 196.18 60.65 284.81 40.17 72.89 100.3 119.83 187.89 141.67V1224.24c136.05 0 264.2-.89 392.26 1.92zm-2880.84 602.37c206.82 65.41 291.72 182.68 268.48 370.75-18.97 153.54-136.04 258.53-296.67 266.05-172.56 8.07-287.5-65.61-318.92-204.47-46.15-203.87 26.73-323.88 259.25-420.59-12.48-40.92-24.98-82.51-37.84-123.99-47.05-151.7-95.49-302.98-140.41-455.31-10.9-36.95-25.77-42.7-61.31-33.87-422.39 104.89-735.09 480.27-766.59 914.17-18.54 255.22 19.29 496.72 156.06 715.79 169.25 271.1 418.6 423.37 732.62 465.42 325.61 43.61 623-27.28 874.2-248.09 210.16-184.75 315.96-424.09 338.79-699.04 26.75-322.35-50.77-615.04-274.31-858.22-132.77-144.43-296.9-238.39-486.73-287.77-22.42-5.83-40.18-12.66-51.06 19.4-64.58 190.41-131.14 380.15-196.83 570.19-.94 2.73.75 6.37 1.27 9.58M556.402 903.359h80.801l-46.586-665.461h-8.554c-99.813 0-165.415 42.782-198.68 109.332-33.278-66.55-98.871-109.332-198.692-109.332h-7.605l-46.578 665.461h80.801l37.082-572.3c66.543 13.312 96.011 70.351 96.011 154.961v417.339h78.907V486.02c0-84.61 29.468-141.649 95.062-154.008l38.031 571.347M920.535 903.359h80.805V237.898h-80.805v409.731H785.543V237.898h-80.809v665.461h80.809V723.68h134.992v179.679M1167.72 390.961h142.6l-71.29 291.84zm180.63-153.063-19.96 82.711h-178.73l-19.96-82.711H1047l186.32 698.723h11.41l186.33-698.723h-82.71M1506.18 237.898v589.403h-111.23v76.058h303.26v-76.058h-111.22V237.898h-80.81M2155.51 903.359h80.8V237.898h-80.8v409.731h-134.99V237.898h-80.81v665.461h80.81V723.68h134.99v179.679M2402.7 390.961h142.6l-71.3 291.84zm180.63-153.063-19.97 82.711h-178.72l-19.96-82.711h-82.71l186.32 698.723h11.41l186.33-698.723h-82.7M2794.39 482.211c68.44 6.66 123.58 75.109 123.58 171.121 0 96.02-55.14 165.418-123.58 172.078zm0-77.949V237.898h-80.81v665.461h48.48c136.9 0 240.52-101.718 240.52-250.027 0-134.992-90.31-235.762-208.19-249.07M3156.62 482.211c68.44 6.66 123.58 75.109 123.58 171.121 0 96.02-55.14 165.418-123.58 172.078zm0-77.949V237.898h-80.81v665.461h48.48c136.9 0 240.52-101.718 240.52-250.027 0-134.992-90.31-235.762-208.19-249.07M3438.03 237.898v665.461h228.16v-78.918h-147.35V694.199h133.08v-72.238h-133.08v-305.16h147.35v-78.903h-228.16M3960.91 903.359h80.8V237.898h-80.8v423.993l-134.99 102.668V237.898h-80.81v674.961h8.56l207.24-154.949v145.449M4103.53 246.449v83.672c25.67-14.269 53.24-22.832 86.51-22.832 55.14 0 87.46 34.231 87.46 98.871 0 44.68-11.4 77.949-47.53 139.738l-53.24 91.274c-28.51 48.488-47.53 94.117-47.53 144.508 0 76.039 53.23 131.179 136.9 131.179 26.61 0 52.28-4.75 72.24-13.308v-77.949c-19.96 8.546-38.98 15.207-62.74 15.207-39.92 0-63.69-22.821-63.69-60.84 0-34.227 15.21-63.688 37.07-101.727l50.38-88.402c36.13-59.899 61.8-117.891 61.8-185.379 0-106.481-60.84-172.07-163.51-172.07-37.08 0-67.5 6.66-94.12 18.058M4627.38 237.898v665.461h77.96V237.898h-77.96M5027.62 903.359h80.8V237.898h-80.8v423.993l-134.99 102.668V237.898h-80.81v674.961h8.56l207.24-154.949v145.449M5460.2 237.898v589.403h-111.22v76.058h303.25v-76.058h-111.22V237.898h-80.81M5919.4 903.359h80.8V237.898h-80.8v409.731h-135V237.898h-80.81v665.461h80.81V723.68h135v179.679M6096.24 237.898v665.461h228.16v-78.918h-147.35V694.199h133.08v-72.238h-133.08v-305.16h147.35v-78.903h-228.16M6634.37 390.961h142.59l-71.3 291.84zm180.61-153.063-19.96 82.711h-178.71l-19.98-82.711h-82.7l186.32 698.723h11.42l186.32-698.723h-82.71M6972.81 237.898v589.403h-111.23v76.058h303.26v-76.058h-111.23V237.898h-80.8M7300.8 237.898v589.403h-111.22v76.058h303.26v-76.058h-111.23V237.898h-80.81M7553.7 237.898v665.461h77.96V237.898h-77.96M7714.38 570.621c0 202.5 132.14 342.238 345.08 342.238 47.54 0 92.22-5.699 131.19-16.16v-81.758c-38.02 10.469-81.75 17.11-124.53 17.11-162.57 0-267.14-103.621-267.14-261.43 0-157.801 104.57-261.43 267.14-261.43 42.78 0 86.51 6.661 124.53 17.118v-81.758c-38.97-10.449-83.65-16.16-131.19-16.16-212.94 0-345.08 139.75-345.08 342.23M8226.82 145.68l30.42 176.832h72.26l-53.25-176.832h-49.43M8548.17 246.449v83.672c25.67-14.269 53.24-22.832 86.51-22.832 55.13 0 87.46 34.231 87.46 98.871 0 44.68-11.42 77.949-47.54 139.738l-53.23 91.274c-28.52 48.488-47.53 94.117-47.53 144.508 0 76.039 53.23 131.179 136.88 131.179 26.62 0 52.29-4.75 72.26-13.308v-77.949c-19.97 8.546-38.98 15.207-62.75 15.207-39.92 0-63.69-22.821-63.69-60.84 0-34.227 15.21-63.688 37.07-101.727L8744 585.84c36.12-59.899 61.79-117.891 61.79-185.379 0-106.481-60.84-172.07-163.52-172.07-37.07 0-67.48 6.66-94.1 18.058M8934.16 237.898v589.403h-111.23v76.058h303.26v-76.058h-111.23V237.898h-80.8M9209.88 390.961h142.59l-71.3 291.84zm180.61-153.063-19.96 82.711h-178.72l-19.97-82.711h-82.7l186.32 698.723h11.42l186.32-698.723h-82.71M9690.91 903.359h87.46l-140.7-294.699V237.898h-80.81V608.66l-140.69 294.699h87.46l94.12-203.449 93.16 203.449M9774.6 246.449v83.672c25.67-14.269 53.24-22.832 86.51-22.832 55.14 0 87.46 34.231 87.46 98.871 0 44.68-11.42 77.949-47.54 139.738l-53.23 91.274c-28.52 48.488-47.53 94.117-47.53 144.508 0 76.039 53.24 131.179 136.88 131.179 26.62 0 52.29-4.75 72.25-13.308v-77.949c-19.96 8.546-38.97 15.207-62.74 15.207-39.92 0-63.69-22.821-63.69-60.84 0-34.227 15.21-63.688 37.07-101.727l50.39-88.402c36.17-59.899 61.77-117.891 61.77-185.379 0-106.481-60.82-172.07-163.49-172.07-37.08 0-67.49 6.66-94.11 18.058M10298.5 237.898v665.461h77.9V237.898h-77.9M10698.7 903.359h80.8V237.898h-80.8v423.993l-135 102.668V237.898h-80.8v674.961h8.6l207.2-154.949v145.449M11131.3 237.898v589.403H11020v76.058h303.3v-76.058h-111.2V237.898h-80.8M11590.5 903.359h80.8V237.898h-80.8v409.731h-135V237.898h-80.8v665.461h80.8V723.68h135v179.679M11767.3 237.898v665.461h228.2v-78.918h-147.4V694.199h133.1v-72.238h-133.1v-305.16h147.4v-78.903h-228.2M12305.4 390.961h142.6l-71.3 291.84zm180.6-153.063-19.9 82.711h-178.7l-20-82.711h-82.7l186.3 698.723h11.4l186.4-698.723h-82.8M12643.9 237.898v589.403h-111.3v76.058h303.3v-76.058h-111.2V237.898h-80.8M12971.9 237.898v589.403h-111.3v76.058h303.3v-76.058h-111.2V237.898h-80.8M13224.8 237.898v665.461h77.9V237.898h-77.9M13385.4 570.621c0 202.5 132.2 342.238 345.1 342.238 47.6 0 92.2-5.699 131.2-16.16v-81.758c-38 10.469-81.7 17.11-124.5 17.11-162.6 0-267.2-103.621-267.2-261.43 0-157.801 104.6-261.43 267.2-261.43 42.8 0 86.5 6.661 124.5 17.118v-81.758c-39-10.449-83.6-16.16-131.2-16.16-212.9 0-345.1 139.75-345.1 342.23" transform="matrix(.03528 0 0 -.03528 5 167.298)"/>
    <path d="M13942.6 237.898v84.614h77v-84.614zm8.5 173.973-8.5 491.488h77l-8.6-491.488h-59.9" transform="matrix(.03528 0 0 -.03528 5 167.298)"/>
</svg>
