<svg width="2115.167" height="1507.99" viewBox="0 0 559.638 398.989" xmlns="http://www.w3.org/2000/svg">
    <path d="M102.348-46.767c0 13.498.072 27-.06 40.5-.026 2.649.773 3.542 3.349 3.268a24.653 24.653 0 0 1 5.313.002c2.588.29 3.109-.86 3.093-3.214-.093-13.598-.046-27.196-.046-40.796v-3.503h9.808V-60.82h-31.13v10.357h9.673v3.697zm66.133-10.646.001 47.28c0 7.132.001 7.132 7.046 7.132h17.4v-11.455h-12.524v-18.672c3.26 0 6.3.084 9.33-.064.727-.035 1.992-.811 2.028-1.316.2-2.794.095-5.612.095-8.794h-11.491v-6.724h12.57v-10.855H168.48v3.468zm-17.82 24.673c.001 7.098-.027 14.197.016 21.295.016 2.64-.803 6.382.569 7.626 1.567 1.422 5.163.512 7.854.816 2.598.292 3.35-.613 3.333-3.258-.12-17.252-.06-34.505-.07-51.76 0-.938-.088-1.88-.132-2.754H150.54v13.67h-10.148v-13.681H128.82v26.483c0 9.462-.037 18.928.056 28.391.009.946.747 2.667 1.24 2.701 3.389.24 6.803.126 10.514.126v-32.678h10.033v3.023zm42.934 167.89v117.02c0 3.913.003 3.914 4.044 3.915 5.422.001 10.844.007 16.266-.006.943-.002 1.885-.091 2.899-.144V135.15h-23.21zm-50.198 26.098c0 30.46.032 60.92-.054 91.38-.007 2.627.528 3.635 3.378 3.525 5.905-.227 11.826-.059 17.74-.076 1.03-.003 2.062-.116 3.354-.194v-98.31c1.235-.057 2.195-.136 3.155-.138 4.928-.013 9.86-.092 14.784.034 2.03.052 2.798-.516 2.73-2.642-.14-4.431-.042-8.87-.042-13.307v-6.351h-65.58v22.202h20.535v3.877zm-72.082.023c0 30.559.026 61.118-.05 91.677-.006 2.41.575 3.269 3.094 3.193 5.81-.174 11.63-.054 17.446-.057 3.902-.002 3.905-.005 3.905-3.775l.002-91.087v-3.794h3.246c4.929 0 9.86-.08 14.785.04 2.015.05 2.795-.512 2.727-2.64-.142-4.431-.041-8.87-.04-13.307v-6.355H50.801v22.31h20.513v3.795zM339.091 7.745C347.181 25.49 355.305 43.22 363.316 61c.78 1.726 1.203 3.764 1.214 5.66.088 18.826.088 37.651.007 56.476-.007 2.207.624 2.912 2.84 2.866 6.307-.129 12.615-.036 18.923-.058.836-.003 1.672-.166 2.628-.267v-3.545c0-18.628-.028-37.256.05-55.885.006-1.697.426-3.517 1.121-5.068 6.505-14.464 13.116-28.88 19.689-43.312 1.94-4.257 3.866-8.52 5.944-13.095-8.615 0-16.782-.057-24.945.089-.818.014-1.993 1.105-2.36 1.97-3.179 7.426-6.209 14.915-9.285 22.384-.766 1.864-1.545 3.723-2.568 6.177-.582-1.343-.89-2.021-1.172-2.71-3.485-8.474-6.925-16.965-10.498-25.4-.42-.994-1.556-2.38-2.389-2.398-8.057-.181-16.118-.109-24.694-.109.586 1.378.91 2.182 1.27 2.97zm-85.027 35.249c-6.113-.014-12.227.044-18.34-.068-.815-.015-2.297-.827-2.315-1.318-.183-4.387-.105-8.786-.105-13.543h26.553V4.974H209.18v120.75h50.706v-23.272h-26.391v-38.73h23.858V43.148c-1.185-.058-2.236-.15-3.288-.153zM31.076 224.875h-14.42l6.755-25.079.644-.146 7.021 25.225zm32.421 28.344C54.2 222.992 44.9 192.764 35.595 162.54c-3.218-10.455-6.432-20.91-9.706-31.346-.364-1.16-.888-3.729-2.917-3.139-.94.274-1.738 3.82-1.825 4.103-11.962 38.997-23.924 77.995-35.884 116.992-.704 2.296-1.39 4.597-2.18 7.216 8.058 0 15.735.044 23.409-.079.644-.01 1.594-1.022 1.845-1.758.826-2.42 1.226-4.992 2.151-7.364.345-.882 1.678-1.932 2.582-1.952 7.094-.16 14.195-.044 21.292-.124 1.714-.019 2.455.62 2.815 2.245a63.347 63.347 0 0 0 1.999 7.11c.262.754 1.16 1.825 1.782 1.836 7.667.126 15.337.082 23.427.082-.368-1.308-.608-2.23-.888-3.142zM-43.605 27.812c.015-6.408-.077-12.819.057-19.224.044-2.112-.672-2.89-2.711-3.305-12.48-2.539-25.011-3.385-37.595-1.07-21.862 4.022-38.038 15.42-45.795 36.829-5.618 15.504-5.544 31.333-.557 47.035 4.505 14.187 13.356 25.008 26.615 31.798 18.642 9.545 38.276 9.699 58.214 5.078.761-.176 1.68-1.759 1.702-2.705.149-6.504.087-13.012.066-19.52-.002-.728-.179-1.456-.3-2.374-1.108.265-1.955.459-2.797.67-9.071 2.274-18.246 3.217-27.547 1.854-13.727-2.013-24.6-8.181-30.386-21.447-2.868-6.576-3.515-13.545-2.81-20.585 1.362-13.61 7.936-23.732 20.595-29.485 8.583-3.902 17.685-4.66 26.92-3.783 5.353.508 10.652 1.579 16.15 2.423.057-.674.177-1.431.179-2.189zm339.6.72c5.694.531 10.266 2.936 14.112 6.771 6.678 6.659 9.468 15.025 10.4 24.174 1.069 10.54-.223 20.675-5.68 29.934-4.156 7.043-10.16 11.62-18.831 12.902V28.532zM271.433 8.249c0 13.41-.004 26.82-.004 40.23 0 24.75.042 49.5-.06 74.248-.01 2.643.73 3.424 3.323 3.284 3.933-.212 7.888.049 11.829-.08 16.714-.546 31.884-5.176 43.987-17.335 10.926-10.976 15.667-24.627 16.274-39.818.695-17.401-3.365-33.345-15.85-46.187-16.37-16.834-37.26-18.846-59.5-17.603v3.261zm42.721 149.37c.014-6.212-.095-12.426.06-18.634.057-2.219-.66-3.103-2.815-3.546-12.778-2.63-25.612-3.403-38.474-.972-19.935 3.768-35.161 13.976-43.65 32.944-4.998 11.165-6.279 22.973-5.203 35.018 1.743 19.45 9.684 35.549 26.896 45.79 5.503 3.274 11.871 5.162 17.964 7.337 2.053.732 2.829 1.465 2.663 3.633-.257 3.435-.106 6.902-.367 10.337-.067.895-1.051 1.701-1.534 2.592-.512.94-1.203 1.907-1.292 2.909-.067.772.565 2.229 1.08 2.321 2.12.382 1.693 1.835 1.669 3.157-.212 11.825-.438 23.654-.65 35.48-.024 1.421-.508 3.026 1.535 3.7.148.05.046 2.332-.452 2.59-1.746.91-1.428 2.271-.635 3.16.964 1.083 2.4 2.216 3.747 2.381 3.214.395 6.495.279 9.744.265.744-.003 1.562-.303 2.212-.695 2.23-1.337 2.317-3.02.529-4.921-.42-.441-.586-1.912-.445-1.98 2.985-1.365 1.902-4.081 2.36-6.332.18-.867 1.454-2.134 2.177-2.102.797.038 1.714 1.26 2.23 2.166.338.592.049 1.538.049 2.325 0 2.162 1.076 3.312 3.242 3.354 4.237.085 8.474.124 12.71.209 3.038.063 3.472-1.852 3.504-4.3.035-2.53-.875-3.955-3.581-3.913-1.87.025-3.743-.06-5.616-.078-2.332-.017-3.01-1.344-2.974-3.467.035-2.156.871-3.394 3.132-3.37 1.87.025 3.747.046 5.613.16 2.724.165 3.634-1.225 3.687-3.768.05-2.445-.244-4.396-3.31-4.414-1.675-.01-3.35-.109-5.026-.084-2.473.042-3.888-.745-3.779-3.595.103-2.688 1.457-3.386 3.807-3.246 1.672.1 3.355.03 5.027.11 2.766.131 3.528-1.413 3.626-3.874.096-2.408-.391-4.151-3.196-4.231-4.335-.125-8.671-.227-13.007-.321-2.042-.045-3.104 1.012-3.245 3.02-.057.785.197 1.715-.141 2.33-.508.916-1.415 1.61-2.152 2.4-.79-.832-2.128-1.584-2.265-2.513-.318-2.116-.198-4.34.067-6.48.11-.91.85-1.949 1.609-2.53 1.435-1.097 1.905-4.765.32-5.254-2.049-.634-1.883-1.898-1.837-3.384.088-2.855.254-5.713.194-8.566-.043-2.073.585-2.763 2.822-2.972 6.265-.586 12.488-1.619 18.732-2.433 2.011-.262 2.756-1.165 2.703-3.315-.163-6.405-.05-12.817-.067-19.226-.004-.73-.163-1.46-.272-2.364-.935.19-1.584.367-2.244.45-7.31.909-14.605 2.377-21.932 2.556-9.105.221-17.865-2.048-25.372-7.55-12.618-9.247-15.966-22.286-14.001-36.975 2.067-15.438 11.92-25.959 26.987-29.783 9.758-2.476 19.533-2.14 29.32-.237 2.377.462 4.727 1.05 7.337 1.634.078-1.187.18-2.045.18-2.903zm-120.235-31.792c.519-.012 1.437-1.622 1.438-2.49.073-38.658.047-77.315.107-115.972.003-2.142-.723-2.69-2.729-2.625-8.635.278-17.078 1.55-25.2 4.582-8.952 3.341-16.642 8.482-22.544 16.31C131.633 9.723 113.896 5.189 93.98 4.673v116.836c0 .592.07 1.193-.011 1.773-.284 2.05.502 2.783 2.618 2.717 4.531-.14 9.07-.043 13.607-.043h8.276v-92.48c6.503 1.731 10.73 5.52 12.318 11.362 1.378 5.07 2.18 10.447 2.243 15.7.247 20.805.136 41.615.059 62.423-.008 2.276.538 3.12 2.95 3.049 5.714-.167 11.444-.22 17.153.016 2.848.118 3.404-.875 3.392-3.509-.094-21.4-.076-42.799-.017-64.198.016-5.756.689-11.435 3.536-16.601 2.34-4.249 5.846-6.984 10.951-8.258v92.479c7.93 0 15.399.051 22.863-.112zM26.004 90.717c12.055-3.813 17.004-10.648 15.65-21.61-1.107-8.95-7.93-15.069-17.293-15.507-10.058-.47-16.757 3.825-18.589 11.918C3.082 77.4 7.331 84.396 20.883 90.033c-.727 2.384-1.456 4.809-2.205 7.226-2.742 8.842-5.566 17.66-8.184 26.539-.636 2.154-1.502 2.488-3.574 1.974-24.619-6.114-42.845-27.993-44.682-53.283-1.08-14.876 1.125-28.953 9.097-41.721C-18.8 14.966-4.267 6.09 14.037 3.64 33.015 1.098 50.349 5.23 64.99 18.1c12.25 10.768 18.417 24.718 19.747 40.744 1.56 18.79-2.959 35.849-15.988 50.023-7.739 8.419-17.306 13.895-28.37 16.773-1.307.34-2.342.738-2.976-1.13-3.764-11.099-7.644-22.158-11.473-33.235-.055-.159.044-.371.074-.558M39.455 271.437h2.275l-1.311 18.74h-.241c-2.811 0-4.658-1.206-5.595-3.08-.937 1.874-2.784 3.08-5.595 3.08h-.214l-1.312-18.74h2.276l1.044 16.115c1.873-.374 2.703-1.98 2.703-4.363v-11.752h2.222v11.752c0 2.383.83 3.989 2.677 4.337l1.07-16.089M49.703 271.437h2.276v18.74h-2.276v-11.539h-3.8v11.538h-2.276v-18.739h2.275v5.06h3.801v-5.06M56.661 285.865h4.016l-2.008-8.217zm5.087 4.311-.563-2.329h-5.032l-.562 2.329h-2.33l5.247-19.675h.321l5.247 19.675h-2.328M66.189 290.176V273.58h-3.132v-2.142h8.54v2.142h-3.133v16.597H66.19M84.469 271.437h2.275v18.74H84.47v-11.539h-3.802v11.538h-2.275v-18.739h2.275v5.06h3.802v-5.06M91.426 285.865h4.015l-2.007-8.217zm5.087 4.311-.563-2.329h-5.033l-.562 2.329h-2.329l5.247-19.675h.321l5.247 19.675h-2.328M102.452 283.296c1.928-.187 3.48-2.115 3.48-4.819 0-2.703-1.552-4.657-3.48-4.845zm0 2.196v4.684h-2.275v-18.739h1.365c3.855 0 6.773 2.864 6.773 7.04 0 3.802-2.543 6.64-5.863 7.015M112.65 283.296c1.926-.187 3.48-2.115 3.48-4.819 0-2.703-1.554-4.657-3.48-4.845zm0 2.196v4.684h-2.276v-18.739h1.365c3.855 0 6.773 2.864 6.773 7.04 0 3.802-2.543 6.64-5.863 7.015M120.57 290.176v-18.739h6.425v2.222h-4.149v3.667h3.748v2.035h-3.748v8.594h4.15v2.221h-6.425M135.292 271.437h2.275v18.74h-2.275v-11.94l-3.802-2.891v14.83h-2.275V271.17h.241l5.836 4.364v-4.096M139.304 289.935v-2.356a4.852 4.852 0 0 0 2.436.642c1.553 0 2.463-.963 2.463-2.784 0-1.257-.32-2.194-1.338-3.934l-1.5-2.57c-.803-1.365-1.338-2.65-1.338-4.07 0-2.141 1.5-3.694 3.855-3.694.75 0 1.473.134 2.035.375v2.195c-.562-.24-1.098-.428-1.767-.428-1.124 0-1.793.643-1.793 1.713 0 .964.428 1.794 1.043 2.865l1.42 2.49c1.016 1.686 1.739 3.319 1.739 5.22 0 2.998-1.713 4.845-4.604 4.845-1.044 0-1.9-.188-2.65-.51M154.051 290.176v-18.739h2.195v18.74h-2.195M165.32 271.437h2.276v18.74h-2.276v-11.94l-3.801-2.891v14.83h-2.275V271.17h.24l5.836 4.364v-4.096M177.496 290.176V273.58h-3.133v-2.142h8.54v2.142h-3.131v16.597h-2.276M190.423 271.437h2.275v18.74h-2.275v-11.539h-3.8v11.538h-2.277v-18.739h2.276v5.06h3.801v-5.06M195.4 290.176v-18.739h6.425v2.222h-4.15v3.667h3.748v2.035h-3.748v8.594h4.15v2.221H195.4M210.55 285.865h4.014l-2.007-8.217zm5.085 4.311-.562-2.329h-5.033l-.561 2.329h-2.33l5.247-19.675h.321l5.247 19.675h-2.33M220.078 290.176V273.58h-3.134v-2.142h8.542v2.142h-3.133v16.597h-2.275M229.31 290.176V273.58h-3.133v-2.142h8.541v2.142h-3.133v16.597h-2.275M236.43 290.176v-18.739h2.193v18.74h-2.194" transform="translate(138.906 65.881)"/>
    <path d="M240.952 280.807c0-5.702 3.722-9.638 9.715-9.638 1.34 0 2.6.161 3.697.455v2.303a13.533 13.533 0 0 0-3.51-.482c-4.575 0-7.521 2.918-7.521 7.362 0 4.443 2.946 7.362 7.521 7.362 1.207 0 2.438-.188 3.51-.483v2.303c-1.097.294-2.356.455-3.697.455-5.993 0-9.715-3.936-9.715-9.637M63.124 317.77v-2.357a4.85 4.85 0 0 0 2.436.642c1.553 0 2.463-.963 2.463-2.784 0-1.26-.322-2.194-1.339-3.933l-1.499-2.572c-.803-1.365-1.338-2.65-1.338-4.067 0-2.142 1.499-3.694 3.854-3.694.75 0 1.473.13 2.035.374v2.194c-.562-.24-1.098-.427-1.767-.427-1.124 0-1.793.642-1.793 1.711 0 .963.428 1.796 1.044 2.865l1.418 2.49c1.018 1.687 1.74 3.32 1.74 5.222 0 2.998-1.713 4.843-4.604 4.843-1.044 0-1.9-.187-2.65-.508M73.99 318.01v-16.6h-3.132v-2.14h8.54v2.14h-3.132v16.6H73.99M81.752 313.698h4.015l-2.007-8.216zm5.086 4.311-.562-2.328h-5.033l-.562 2.328h-2.329l5.247-19.674h.321l5.247 19.674h-2.329M95.295 299.27h2.463l-3.962 8.3v10.44H91.52v-10.44l-3.961-8.3h2.462l2.65 5.729 2.624-5.73M97.649 317.77v-2.357a4.849 4.849 0 0 0 2.436.642c1.552 0 2.462-.963 2.462-2.784 0-1.26-.32-2.194-1.338-3.933l-1.5-2.572c-.802-1.365-1.338-2.65-1.338-4.067 0-2.142 1.5-3.694 3.855-3.694.75 0 1.473.13 2.035.374v2.194c-.562-.24-1.098-.427-1.767-.427-1.124 0-1.794.642-1.794 1.711 0 .963.429 1.796 1.045 2.865l1.418 2.49c1.017 1.687 1.74 3.32 1.74 5.222 0 2.998-1.713 4.843-4.604 4.843-1.044 0-1.9-.187-2.65-.508M112.396 318.01v-18.74h2.195v18.74h-2.195M123.664 299.27h2.275v18.74h-2.275V306.07l-3.801-2.893v14.831h-2.276v-19.004h.241l5.836 4.364v-4.1M135.84 318.01v-16.6h-3.132v-2.14h8.54v2.14h-3.133v16.6h-2.275M148.768 299.27h2.275v18.74h-2.275v-11.537h-3.801v11.536h-2.276v-18.74h2.276v5.063h3.801v-5.062M153.744 318.01v-18.74h6.425v2.222h-4.15v3.669h3.749v2.035h-3.748v8.59h4.149v2.223h-6.425M168.892 313.698h4.017l-2.008-8.216zm5.087 4.311-.562-2.328h-5.033l-.562 2.328h-2.33l5.248-19.674h.321l5.247 19.674h-2.329M178.42 318.01v-16.6h-3.13v-2.14h8.538v2.14h-3.132v16.6h-2.275M187.653 318.01v-16.6h-3.132v-2.14h8.54v2.14h-3.132v16.6h-2.276M194.772 318.01v-18.74h2.195v18.74h-2.195M199.295 308.64c0-5.702 3.72-9.635 9.717-9.635 1.339 0 2.597.159 3.695.452v2.303a13.603 13.603 0 0 0-3.507-.483c-4.578 0-7.523 2.92-7.523 7.362 0 4.445 2.945 7.363 7.523 7.363 1.204 0 2.436-.187 3.507-.484v2.304c-1.098.297-2.356.455-3.695.455-5.996 0-9.717-3.937-9.717-9.638M214.98 318.01v-2.382h2.167v2.381zm.24-4.897-.24-13.843h2.167l-.24 13.843h-1.687" style="fill:#bfb266;fill-opacity:1;fill-rule:nonzero;stroke:none;stroke-width:.0352778" transform="translate(138.906 65.881)"/>
</svg>